<svg width="534" height="380" viewBox="0 0 534 380" fill="none" xmlns="http://www.w3.org/2000/svg">
<g clip-path="url(#clip0_1567_2111)">
<g filter="url(#filter0_d_1567_2111)">
<path d="M486.07 22.3999H62.5299C58.5921 22.3999 55.3999 25.5921 55.3999 29.5299V340.89C55.3999 344.828 58.5921 348.02 62.5299 348.02H486.07C490.008 348.02 493.2 344.828 493.2 340.89V29.5299C493.2 25.5921 490.008 22.3999 486.07 22.3999Z" fill="white"/>
</g>
<g opacity="0.5">
<path d="M468.64 47.52C470.711 47.52 472.39 45.8411 472.39 43.77C472.39 41.699 470.711 40.02 468.64 40.02C466.569 40.02 464.89 41.699 464.89 43.77C464.89 45.8411 466.569 47.52 468.64 47.52Z" fill="#A9A9A8" stroke="white" stroke-width="0.5" stroke-miterlimit="10"/>
<path d="M457.14 47.52C459.211 47.52 460.89 45.8411 460.89 43.77C460.89 41.699 459.211 40.02 457.14 40.02C455.069 40.02 453.39 41.699 453.39 43.77C453.39 45.8411 455.069 47.52 457.14 47.52Z" fill="#A9A9A8" stroke="white" stroke-width="0.5" stroke-miterlimit="10"/>
<path d="M445.39 47.52C447.461 47.52 449.14 45.8411 449.14 43.77C449.14 41.699 447.461 40.02 445.39 40.02C443.319 40.02 441.64 41.699 441.64 43.77C441.64 45.8411 443.319 47.52 445.39 47.52Z" fill="#A9A9A8" stroke="white" stroke-width="0.5" stroke-miterlimit="10"/>
</g>
<path d="M256.42 132.52H108.13C106.887 132.52 105.88 133.527 105.88 134.77V137.27C105.88 138.513 106.887 139.52 108.13 139.52H256.42C257.663 139.52 258.67 138.513 258.67 137.27V134.77C258.67 133.527 257.663 132.52 256.42 132.52Z" fill="#E5E5E5"/>
<path d="M359.23 147.52H108.13C106.887 147.52 105.88 148.527 105.88 149.77V152.27C105.88 153.513 106.887 154.52 108.13 154.52H359.23C360.473 154.52 361.48 153.513 361.48 152.27V149.77C361.48 148.527 360.473 147.52 359.23 147.52Z" fill="#E5E5E5"/>
<path d="M332.1 162.52H108.13C106.887 162.52 105.88 163.527 105.88 164.77V167.27C105.88 168.513 106.887 169.52 108.13 169.52H332.1C333.343 169.52 334.35 168.513 334.35 167.27V164.77C334.35 163.527 333.343 162.52 332.1 162.52Z" fill="#E5E5E5"/>
<path d="M415.64 118.02H107.42C106.177 118.02 105.17 119.027 105.17 120.27V122.77C105.17 124.013 106.177 125.02 107.42 125.02H415.64C416.883 125.02 417.89 124.013 417.89 122.77V120.27C417.89 119.027 416.883 118.02 415.64 118.02Z" fill="#E5E5E5"/>
<path d="M256.42 132.52H108.13C106.887 132.52 105.88 133.527 105.88 134.77V137.27C105.88 138.513 106.887 139.52 108.13 139.52H256.42C257.663 139.52 258.67 138.513 258.67 137.27V134.77C258.67 133.527 257.663 132.52 256.42 132.52Z" fill="#E5E5E5"/>
<path d="M359.23 147.52H108.13C106.887 147.52 105.88 148.527 105.88 149.77V152.27C105.88 153.513 106.887 154.52 108.13 154.52H359.23C360.473 154.52 361.48 153.513 361.48 152.27V149.77C361.48 148.527 360.473 147.52 359.23 147.52Z" fill="#E5E5E5"/>
<path d="M332.1 162.52H108.13C106.887 162.52 105.88 163.527 105.88 164.77V167.27C105.88 168.513 106.887 169.52 108.13 169.52H332.1C333.343 169.52 334.35 168.513 334.35 167.27V164.77C334.35 163.527 333.343 162.52 332.1 162.52Z" fill="#E5E5E5"/>
<path d="M172.17 177.52H108.13C106.887 177.52 105.88 178.527 105.88 179.77V182.27C105.88 183.513 106.887 184.52 108.13 184.52H172.17C173.413 184.52 174.42 183.513 174.42 182.27V179.77C174.42 178.527 173.413 177.52 172.17 177.52Z" fill="#E5E5E5"/>
<path d="M296.4 192.52H108.13C106.887 192.52 105.88 193.527 105.88 194.77V197.27C105.88 198.513 106.887 199.52 108.13 199.52H296.4C297.643 199.52 298.65 198.513 298.65 197.27V194.77C298.65 193.527 297.643 192.52 296.4 192.52Z" fill="#E5E5E5"/>
<path d="M416.35 207.52H108.13C106.887 207.52 105.88 208.527 105.88 209.77V212.27C105.88 213.513 106.887 214.52 108.13 214.52H416.35C417.593 214.52 418.6 213.513 418.6 212.27V209.77C418.6 208.527 417.593 207.52 416.35 207.52Z" fill="#E5E5E5"/>
<path d="M415.63 226.34H106.59C105.347 226.34 104.34 227.347 104.34 228.59V231.09C104.34 232.333 105.347 233.34 106.59 233.34H415.63C416.873 233.34 417.88 232.333 417.88 231.09V228.59C417.88 227.347 416.873 226.34 415.63 226.34Z" fill="#E5E5E5"/>
<path d="M256 240.84H107.31C106.067 240.84 105.06 241.847 105.06 243.09V245.59C105.06 246.833 106.067 247.84 107.31 247.84H256C257.243 247.84 258.25 246.833 258.25 245.59V243.09C258.25 241.847 257.243 240.84 256 240.84Z" fill="#E5E5E5"/>
<path d="M359.08 255.84H107.31C106.067 255.84 105.06 256.847 105.06 258.09V260.59C105.06 261.833 106.067 262.84 107.31 262.84H359.08C360.323 262.84 361.33 261.833 361.33 260.59V258.09C361.33 256.847 360.323 255.84 359.08 255.84Z" fill="#E5E5E5"/>
<path d="M331.88 270.84H107.31C106.067 270.84 105.06 271.847 105.06 273.09V275.59C105.06 276.833 106.067 277.84 107.31 277.84H331.88C333.123 277.84 334.13 276.833 334.13 275.59V273.09C334.13 271.847 333.123 270.84 331.88 270.84Z" fill="#E5E5E5"/>
<path d="M415.63 226.34H106.59C105.347 226.34 104.34 227.347 104.34 228.59V231.09C104.34 232.333 105.347 233.34 106.59 233.34H415.63C416.873 233.34 417.88 232.333 417.88 231.09V228.59C417.88 227.347 416.873 226.34 415.63 226.34Z" fill="#E5E5E5"/>
<path d="M256 240.84H107.31C106.067 240.84 105.06 241.847 105.06 243.09V245.59C105.06 246.833 106.067 247.84 107.31 247.84H256C257.243 247.84 258.25 246.833 258.25 245.59V243.09C258.25 241.847 257.243 240.84 256 240.84Z" fill="#E5E5E5"/>
<path d="M359.08 255.84H107.31C106.067 255.84 105.06 256.847 105.06 258.09V260.59C105.06 261.833 106.067 262.84 107.31 262.84H359.08C360.323 262.84 361.33 261.833 361.33 260.59V258.09C361.33 256.847 360.323 255.84 359.08 255.84Z" fill="#E5E5E5"/>
<path d="M331.88 270.84H107.31C106.067 270.84 105.06 271.847 105.06 273.09V275.59C105.06 276.833 106.067 277.84 107.31 277.84H331.88C333.123 277.84 334.13 276.833 334.13 275.59V273.09C334.13 271.847 333.123 270.84 331.88 270.84Z" fill="#E5E5E5"/>
<path d="M171.53 285.84H107.31C106.067 285.84 105.06 286.847 105.06 288.09V290.59C105.06 291.833 106.067 292.84 107.31 292.84H171.53C172.773 292.84 173.78 291.833 173.78 290.59V288.09C173.78 286.847 172.773 285.84 171.53 285.84Z" fill="#E5E5E5"/>
<path d="M296.09 300.84H107.31C106.067 300.84 105.06 301.847 105.06 303.09V305.59C105.06 306.833 106.067 307.84 107.31 307.84H296.09C297.333 307.84 298.34 306.833 298.34 305.59V303.09C298.34 301.847 297.333 300.84 296.09 300.84Z" fill="#E5E5E5"/>
<path d="M416.35 315.84H107.31C106.067 315.84 105.06 316.847 105.06 318.09V320.59C105.06 321.833 106.067 322.84 107.31 322.84H416.35C417.593 322.84 418.6 321.833 418.6 320.59V318.09C418.6 316.847 417.593 315.84 416.35 315.84Z" fill="#E5E5E5"/>
<g filter="url(#filter1_d_1567_2111)">
<path d="M503.95 167.18H386.83C380.203 167.18 374.83 172.553 374.83 179.18V280.51C374.83 287.137 380.203 292.51 386.83 292.51H503.95C510.577 292.51 515.95 287.137 515.95 280.51V179.18C515.95 172.553 510.577 167.18 503.95 167.18Z" fill="white"/>
</g>
<path d="M409.15 199.76C399.78 209.13 393.98 222.09 393.98 236.41H445.8L409.15 199.76Z" fill="#C697E8"/>
<path d="M451.57 190.48C439.07 190.48 427.76 195.54 419.58 203.72L451.57 235.71V190.48Z" fill="#F5ECFB"/>
<path d="M489.73 193.31C480.73 184.31 468.29 178.74 454.54 178.74V228.5L489.73 193.31Z" fill="#F5ECFB"/>
<path d="M496.8 235.71C496.8 223.21 491.74 211.9 483.56 203.72L451.57 235.71H496.8Z" fill="#DCBFF2"/>
<path d="M419.57 267.7C427.75 275.88 439.06 280.94 451.56 280.94V235.71L419.57 267.7Z" fill="#DCBFF2"/>
<path d="M451.57 235.71L483.56 267.7C491.74 259.52 496.8 248.21 496.8 235.71H451.57Z" fill="#DCBFF2"/>
<path d="M393.98 236.41C393.98 250.73 399.77 263.68 409.15 273.06L445.8 236.41H393.98Z" fill="#C697E8"/>
<path d="M451.57 280.94C464.07 280.94 475.38 275.88 483.56 267.7L451.57 235.71V280.94Z" fill="#652A88"/>
<path d="M431.41 12H417.331C407.759 12 400 19.7594 400 29.3311V43.4103C400 52.982 407.759 60.7414 417.331 60.7414H431.41C440.982 60.7414 448.741 52.982 448.741 43.4103V29.3311C448.741 19.7594 440.982 12 431.41 12Z" fill="#D7FFE7"/>
<path d="M437.89 23C437.87 22.7655 437.767 22.5457 437.601 22.3792C437.434 22.2127 437.215 22.1103 436.98 22.09C429 21.41 422.8 24 418.34 30H413C412.782 29.9887 412.566 30.049 412.386 30.1717C412.205 30.2945 412.07 30.4731 412 30.68L410 36.68C409.92 36.9205 409.935 37.1822 410.041 37.4124C410.146 37.6425 410.336 37.824 410.57 37.92C413.169 38.9433 415.531 40.488 417.511 42.4589C419.49 44.4299 421.045 46.7853 422.08 49.38C422.155 49.5627 422.282 49.719 422.446 49.8293C422.61 49.9396 422.803 49.999 423 50C423.113 49.9988 423.224 49.9785 423.33 49.94L429.48 47.79C429.672 47.723 429.839 47.599 429.959 47.4346C430.078 47.2703 430.145 47.0733 430.15 46.87L430.25 41.41C436.06 37 438.58 30.92 437.89 23ZM413.72 32H417C415.951 33.7566 415.054 35.6001 414.32 37.51C413.66 37.13 412.97 36.77 412.26 36.45L413.72 32ZM428.16 46.14L423.55 47.75C423.21 47.02 422.84 46.33 422.45 45.65C424.457 44.8833 426.388 43.9326 428.22 42.81L428.16 46.14ZM421.36 43.94C419.902 41.8577 418.088 40.0498 416 38.6C420 28.14 426.37 23.49 436 24C436.51 33.63 431.85 40 421.36 43.94Z" fill="#03592B"/>
<path d="M429.5 27C428.572 27 427.681 27.3688 427.025 28.0252C426.369 28.6815 426 29.5718 426 30.5C426 31.4283 426.369 32.3185 427.025 32.9749C427.681 33.6313 428.572 34 429.5 34C430.428 34 431.318 33.6313 431.975 32.9749C432.631 32.3185 433 31.4283 433 30.5C433 29.5718 432.631 28.6815 431.975 28.0252C431.318 27.3688 430.428 27 429.5 27ZM429.5 32C429.102 32 428.721 31.842 428.439 31.5607C428.158 31.2794 428 30.8979 428 30.5C428 30.1022 428.158 29.7207 428.439 29.4394C428.721 29.1581 429.102 29 429.5 29C429.898 29 430.279 29.1581 430.561 29.4394C430.842 29.7207 431 30.1022 431 30.5C431 30.8979 430.842 31.2794 430.561 31.5607C430.279 31.842 429.898 32 429.5 32Z" fill="#03592B"/>
<path d="M414.47 42.4999C413.844 42.4934 413.232 42.6826 412.719 43.0413C412.206 43.3999 411.819 43.9099 411.61 44.4999V44.5499L410.08 48.5499C410.012 48.73 409.998 48.9258 410.039 49.1138C410.08 49.3018 410.174 49.4741 410.31 49.6099C410.392 49.7185 410.496 49.8091 410.615 49.8762C410.733 49.9433 410.864 49.9854 411 49.9999C411.119 50.001 411.238 49.9807 411.35 49.9399L415.55 48.3599C415.599 48.3461 415.646 48.3259 415.69 48.2999C416.23 48.0666 416.69 47.6796 417.011 47.187C417.333 46.6945 417.503 46.1183 417.5 45.5299C417.504 45.1309 417.428 44.7351 417.278 44.3657C417.127 43.9962 416.904 43.6606 416.621 43.3785C416.339 43.0963 416.004 42.8733 415.634 42.7224C415.265 42.5716 414.869 42.4959 414.47 42.4999ZM414.86 46.4999L412.71 47.3099L413.42 45.4299C413.449 45.3759 413.473 45.3189 413.49 45.2599C413.549 45.0418 413.679 44.8499 413.861 44.7155C414.043 44.5811 414.264 44.5122 414.49 44.5199C414.755 44.5199 415.01 44.6253 415.197 44.8128C415.385 45.0004 415.49 45.2547 415.49 45.5199C415.496 45.7253 415.439 45.9276 415.327 46.0994C415.214 46.2711 415.051 46.404 414.86 46.4799V46.4999Z" fill="#03592B"/>
<g filter="url(#filter2_d_1567_2111)">
<path d="M247.19 52H24C17.3726 52 12 57.373 12 64V138.82C12 145.447 17.3726 150.82 24 150.82H247.19C253.817 150.82 259.19 145.447 259.19 138.82V64C259.19 57.373 253.817 52 247.19 52Z" fill="white"/>
</g>
<path d="M243.9 100.57H238.33V133.62H243.9V100.57Z" fill="#66E09A"/>
<path d="M234.72 89.7998H229.15V133.62H234.72V89.7998Z" fill="#00A346"/>
<path d="M225.55 76.75H219.98V133.62H225.55V76.75Z" fill="#00A346"/>
<path d="M216.37 95.5098H210.8V133.62H216.37V95.5098Z" fill="#66E09A"/>
<path d="M207.2 114.57H201.63V133.62H207.2V114.57Z" fill="#66E09A"/>
<path d="M198.02 84.0398H192.45V133.62H198.02V84.0398Z" fill="#00A346"/>
<path d="M188.85 105.59H183.28V133.62H188.85V105.59Z" fill="#66E09A"/>
<path d="M179.67 89.7998H174.1V133.62H179.67V89.7998Z" fill="#00A346"/>
<path d="M170.49 117.09H164.92V133.62H170.49V117.09Z" fill="#66E09A"/>
<path d="M161.32 75.1899H155.75V133.62H161.32V75.1899Z" fill="#00A346"/>
<path d="M152.14 105.59H146.57V133.62H152.14V105.59Z" fill="#66E09A"/>
<path d="M142.97 85.98H137.4V133.62H142.97V85.98Z" fill="#00A346"/>
<path d="M133.79 100.57H128.22V133.62H133.79V100.57Z" fill="#66E09A"/>
<path d="M124.62 81.9897H119.05V133.62H124.62V81.9897Z" fill="#00A346"/>
<path d="M115.44 116.19H109.87V133.62H115.44V116.19Z" fill="#66E09A"/>
<path d="M106.26 89.7998H100.69V133.62H106.26V89.7998Z" fill="#00A346"/>
<path d="M97.09 69.1899H91.52V133.62H97.09V69.1899Z" fill="#00A346"/>
<path d="M87.9099 98.8699H82.3398V133.62H87.9099V98.8699Z" fill="#66E09A"/>
<path d="M78.7399 105.59H73.1699V133.62H78.7399V105.59Z" fill="#66E09A"/>
<path d="M69.56 112.14H63.99V133.62H69.56V112.14Z" fill="#66E09A"/>
<path d="M60.3898 100.57H54.8198V133.62H60.3898V100.57Z" fill="#66E09A"/>
<path d="M51.2101 89.7998H45.6401V133.62H51.2101V89.7998Z" fill="#00A346"/>
<path d="M42.03 100.57H36.46V133.62H42.03V100.57Z" fill="#66E09A"/>
<path d="M32.86 81.9897H27.29V133.62H32.86V81.9897Z" fill="#00A346"/>
<path d="M32.86 108.17H27.29V133.62H32.86V108.17Z" fill="#66E09A"/>
<path d="M42.03 99.8799H36.46V133.62H42.03V99.8799Z" fill="#66E09A"/>
<path d="M51.2101 89.8398H45.6401V133.62H51.2101V89.8398Z" fill="#00A346"/>
<path d="M60.3898 104.28H54.8198V133.62H60.3898V104.28Z" fill="#66E09A"/>
<path d="M69.56 118.95H63.99V133.62H69.56V118.95Z" fill="#66E09A"/>
<path d="M78.7399 95.45H73.1699V133.61H78.7399V95.45Z" fill="#66E09A"/>
<path d="M87.9099 112.04H82.3398V133.62H87.9099V112.04Z" fill="#66E09A"/>
<path d="M97.09 99.8799H91.52V133.62H97.09V99.8799Z" fill="#66E09A"/>
<path d="M115.44 88.6399H109.87V133.62H115.44V88.6399Z" fill="#00A346"/>
<path d="M124.62 112.04H119.05V133.62H124.62V112.04Z" fill="#66E09A"/>
<path d="M133.79 96.95H128.22V133.62H133.79V96.95Z" fill="#66E09A"/>
<path d="M142.97 108.17H137.4V133.62H142.97V108.17Z" fill="#66E09A"/>
<path d="M152.14 93.8699H146.57V133.62H152.14V93.8699Z" fill="#66E09A"/>
<path d="M170.49 99.8799H164.92V133.62H170.49V99.8799Z" fill="#66E09A"/>
<path d="M179.67 84.0198H174.1V133.62H179.67V84.0198Z" fill="#00A346"/>
<path d="M188.85 106.87H183.28V133.62H188.85V106.87Z" fill="#66E09A"/>
<path d="M198.02 112.04H192.45V133.62H198.02V112.04Z" fill="#66E09A"/>
<path d="M207.2 117.09H201.63V133.62H207.2V117.09Z" fill="#66E09A"/>
<path d="M216.37 108.17H210.8V133.62H216.37V108.17Z" fill="#66E09A"/>
<path d="M225.55 99.8799H219.98V133.62H225.55V99.8799Z" fill="#66E09A"/>
<path d="M234.72 108.17H229.15V133.62H234.72V108.17Z" fill="#66E09A"/>
<path d="M243.9 93.8699H238.33V133.62H243.9V93.8699Z" fill="#66E09A"/>
<mask id="mask0_1567_2111" style="mask-type:luminance" maskUnits="userSpaceOnUse" x="9" y="145" width="211" height="236">
<path d="M219.95 145H9V380.03H219.95V145Z" fill="white"/>
</mask>
<g mask="url(#mask0_1567_2111)">
<path d="M119.31 305.61C116.91 321.04 126.31 337.5 140.3 342.38C154.29 347.26 167.57 338.72 169.97 323.29C172.37 307.86 162.97 291.4 148.98 286.52C134.99 281.64 121.71 290.18 119.31 305.61Z" fill="#00A346"/>
<path d="M139.15 341.95C139.53 342.1 139.91 342.25 140.3 342.39C143.29 343.43 146.24 343.86 149.07 343.74C136.37 339.87 137.48 321 139.25 317.1C134.03 326.53 137.68 338.1 139.16 341.95H139.15Z" fill="#00CC57"/>
<path opacity="0.3" d="M139.15 341.95C139.53 342.1 139.91 342.25 140.3 342.39C143.29 343.43 146.24 343.86 149.07 343.74C136.37 339.87 137.48 321 139.25 317.1C134.03 326.53 137.68 338.1 139.16 341.95H139.15Z" fill="white"/>
<path d="M162.75 325.77C166.4 325.45 168.62 324.44 169.94 323.45C169.94 323.4 169.96 323.35 169.97 323.29C170.25 321.51 170.36 319.71 170.33 317.92C169.12 319.15 167.11 320.52 163.76 321.77C154.43 325.25 143.65 319.68 139.48 316.64C146.02 322.27 151.3 326.76 162.74 325.77H162.75Z" fill="#00CC57"/>
<path opacity="0.3" d="M162.75 325.77C166.4 325.45 168.62 324.44 169.94 323.45C169.94 323.4 169.96 323.35 169.97 323.29C170.25 321.51 170.36 319.71 170.33 317.92C169.12 319.15 167.11 320.52 163.76 321.77C154.43 325.25 143.65 319.68 139.48 316.64C146.02 322.27 151.3 326.76 162.74 325.77H162.75Z" fill="white"/>
<path d="M139.49 316.64C139.41 316.75 139.32 316.91 139.24 317.09C139.32 316.94 139.4 316.79 139.49 316.64Z" fill="#00CC57"/>
<path d="M164.3 298.83C163.32 297.36 162.24 295.98 161.06 294.69C149.69 292.36 141.64 304.1 139.49 316.64C146.05 297.62 159.98 295.95 164.3 298.83Z" fill="#00CC57"/>
<path opacity="0.3" d="M164.3 298.83C163.32 297.36 162.24 295.98 161.06 294.69C149.69 292.36 141.64 304.1 139.49 316.64C146.05 297.62 159.98 295.95 164.3 298.83Z" fill="white"/>
<path d="M118.95 311.58C119 313.15 119.17 314.7 119.44 316.25C123.87 318.88 131.3 319.29 139.49 316.65C128.04 317.08 121.88 313.89 118.95 311.59V311.58Z" fill="#00CC57"/>
<path opacity="0.3" d="M118.95 311.58C119 313.15 119.17 314.7 119.44 316.25C123.87 318.88 131.3 319.29 139.49 316.65C128.04 317.08 121.88 313.89 118.95 311.59V311.58Z" fill="white"/>
<path d="M134.88 286.09C132.8 286.73 130.84 287.7 129.05 288.96C127.4 301.53 130.96 310.3 139.49 316.65C130.01 304.7 133.11 291.3 134.88 286.09Z" fill="#00CC57"/>
<path opacity="0.3" d="M134.88 286.09C132.8 286.73 130.84 287.7 129.05 288.96C127.4 301.53 130.96 310.3 139.49 316.65C130.01 304.7 133.11 291.3 134.88 286.09Z" fill="white"/>
<path d="M131.9 313.99C131.18 318.61 134 323.55 138.19 325.01C142.38 326.47 146.37 323.91 147.09 319.29C147.81 314.67 144.99 309.73 140.8 308.27C136.61 306.81 132.62 309.37 131.9 313.99Z" fill="#002410"/>
<path d="M140.79 308.27C139.6 307.85 138.43 307.77 137.34 307.96C135.89 309.02 134.84 310.72 134.5 312.88C133.78 317.5 136.6 322.44 140.79 323.9C141.98 324.32 143.15 324.4 144.24 324.21C145.69 323.15 146.74 321.45 147.08 319.29C147.8 314.67 144.98 309.73 140.79 308.27Z" fill="black"/>
<path opacity="0.2" d="M152.76 340.98C145.65 341.76 134.01 338.28 129.22 326.28C124.43 314.27 129.23 307.9 132.77 305.52C136.31 303.14 136.71 298.71 136.34 293.25C135.97 287.8 143.2 284.86 148.97 286.52C134.98 281.64 121.7 290.18 119.3 305.61C116.9 321.04 126.3 337.5 140.29 342.38C151.56 346.31 162.37 341.53 167.4 331.45C164.7 336.71 159.82 340.2 152.75 340.98H152.76Z" fill="black"/>
<path opacity="0.15" d="M166.61 315.66C167.81 315.33 167.83 313.65 167.76 312.69C167.68 311.63 167.54 310.57 167.33 309.52C166.43 304.97 164.36 300.66 161.36 297.13C158.69 293.98 155.18 290.39 150.67 290.86C149.42 290.99 148.01 291.61 147.76 292.84C147.51 294.04 148.48 295.12 149.38 295.95C150.73 297.19 152.11 298.38 153.43 299.64C157.69 303.75 161.16 308.76 164.06 313.88C164.53 314.72 165.48 315.97 166.62 315.66H166.61ZM168.32 318.77C167.8 317.53 166.45 317.63 165.96 318.81C165.75 319.33 165.62 319.88 165.57 320.43C165.52 321.05 165.64 321.97 166.24 322.31C166.5 322.46 166.81 322.5 167.1 322.46C168.16 322.31 168.51 321.39 168.52 320.45C168.52 319.88 168.52 319.29 168.31 318.76L168.32 318.77Z" fill="white"/>
<path d="M117.99 284.09L74.0901 309.41L104.3 326.75L148.2 301.43L117.99 284.09Z" fill="#00CC57"/>
<path opacity="0.2" d="M117.99 284.09L74.0901 309.41L104.3 326.75L148.2 301.43L117.99 284.09Z" fill="white"/>
<path d="M148.2 301.43V324.02L104.3 349.34V326.75L148.2 301.43Z" fill="#00CC57"/>
<path d="M74.0901 309.41V332L104.3 349.34V326.75L74.0901 309.41Z" fill="#00CC57"/>
<path opacity="0.2" d="M74.0901 309.41V332L104.3 349.34V326.75L74.0901 309.41Z" fill="black"/>
<path d="M143.49 282.1V301.85L105.11 323.99V304.23L143.49 282.1Z" fill="#00A346"/>
<path d="M78.7 289.07V308.83L105.11 323.99V304.23L78.7 289.07Z" fill="#03592B"/>
<path d="M219.01 293.7L219.95 275.73L219.14 269.96L195.19 266.62L183.17 283.04L183.98 288.81L197.92 299.34L201.79 294.87L200.98 289.1L195.36 284.81L199.89 278.92L212.41 280.64L212.23 287.39L213.04 293.15L219.01 293.7Z" fill="#00CC57"/>
<path opacity="0.2" d="M219.01 293.7L219.95 275.73L219.14 269.96L195.19 266.62L183.17 283.04L183.98 288.81L197.92 299.34L201.79 294.87L200.98 289.1L195.36 284.81L199.89 278.92L212.41 280.64L212.23 287.39L213.04 293.15L219.01 293.7Z" fill="white"/>
<path d="M212.23 287.39L213.04 293.15L213.38 280.77L212.41 280.64L212.23 287.39Z" fill="#00CC57"/>
<path opacity="0.35" d="M212.23 287.39L213.04 293.15L213.38 280.77L212.41 280.64L212.23 287.39Z" fill="black"/>
<path d="M183.98 288.81L196 272.39L195.19 266.62L183.17 283.04L183.98 288.81Z" fill="#00CC57"/>
<path opacity="0.25" d="M183.98 288.81L196 272.39L195.19 266.62L183.17 283.04L183.98 288.81Z" fill="black"/>
<path d="M219.95 275.73L196 272.39L183.98 288.81L197.92 299.34L201.79 294.87L192.86 288.06L199.89 278.92L213.38 280.77L213.04 293.15L219.01 293.7L219.95 275.73Z" fill="#00CC57"/>
<path d="M192.86 288.06L201.79 294.87L200.98 289.1L195.36 284.81L192.86 288.06Z" fill="#00CC57"/>
<path opacity="0.25" d="M192.86 288.06L201.79 294.87L200.98 289.1L195.36 284.81L192.86 288.06Z" fill="black"/>
<path d="M186.85 262.53C186.58 261.84 186.78 260.97 187.49 260.09C188.92 258.33 191.89 257.19 194.13 257.54C195.25 257.72 195.97 258.23 196.24 258.93C196.4 259.35 199.92 268.52 200.08 268.94C200.35 269.63 200.15 270.5 199.44 271.38C198.01 273.14 195.04 274.28 192.8 273.93C191.68 273.75 190.96 273.24 190.69 272.54C190.53 272.12 187.01 262.95 186.85 262.53Z" fill="#002410"/>
<path d="M194.13 257.54C195.25 257.72 195.97 258.23 196.24 258.93C196.51 259.63 196.31 260.49 195.6 261.37C194.17 263.13 191.2 264.27 188.96 263.92C187.84 263.74 187.12 263.23 186.85 262.53C186.58 261.84 186.78 260.97 187.49 260.09C188.92 258.33 191.89 257.19 194.13 257.54Z" fill="#00A346"/>
<path d="M193.13 258.88C193.09 258.75 193.04 258.63 192.98 258.51C186.43 245.66 175.29 238.45 163.18 239.22C161.82 239.31 160.79 240.48 160.87 241.84C160.96 243.2 162.13 244.23 163.49 244.15C173.58 243.51 182.96 249.71 188.58 260.75C189.2 261.96 190.69 262.45 191.9 261.83C192.99 261.27 193.49 260.01 193.13 258.88Z" fill="#03592B"/>
<path d="M161.53 256.17C159.99 257.16 157.8 257.14 155.32 255.87C150.35 253.32 146.1 246.74 145.82 241.17C145.68 238.38 146.56 236.38 148.1 235.38C153.84 231.67 161.5 233.32 165.21 239.06C168.92 244.8 167.27 252.46 161.53 256.17Z" fill="#00CC57"/>
<path opacity="0.1" d="M155.32 255.87C156.26 256.35 157.16 256.65 158 256.79C154.35 255.71 148.21 249.09 149.1 241.99C149.99 234.91 157.4 232.77 161.64 235.45C157.67 232.83 152.36 232.64 148.11 235.39C146.57 236.38 145.69 238.39 145.83 241.18C146.11 246.75 150.36 253.33 155.33 255.88L155.32 255.87Z" fill="black"/>
<path d="M161.948 256.818C166.136 249.6 163.679 240.354 156.461 236.166C149.243 231.979 139.997 234.435 135.809 241.654C131.621 248.872 134.078 258.118 141.296 262.306C148.515 266.494 157.761 264.037 161.948 256.818Z" fill="#EFFFF4"/>
<path d="M152.2 234.5L152.1 234.95C157.44 236.16 161.63 240.19 163.03 245.48C165.1 253.28 160.44 261.32 152.64 263.39C150.36 264 147.95 264.04 145.66 263.53C140.32 262.32 136.13 258.29 134.73 253C133.73 249.22 134.25 245.27 136.22 241.89C138.18 238.51 141.35 236.09 145.13 235.09C147.41 234.48 149.82 234.44 152.11 234.95L152.21 234.5M152.2 234.5C149.9 233.98 147.44 233.99 145 234.64C136.94 236.78 132.14 245.06 134.28 253.12C135.77 258.74 140.25 262.78 145.56 263.98C147.86 264.5 150.32 264.49 152.76 263.84C160.82 261.7 165.62 253.42 163.48 245.36C161.99 239.74 157.51 235.7 152.2 234.5Z" fill="#EFFFF4"/>
<path d="M151.26 257.65C146.52 258.55 136.41 259.5 134.89 247.07C134.8 247.05 134.38 247.56 133.79 248.34C133.7 249.91 133.84 251.51 134.27 253.12C136.41 261.18 144.69 265.98 152.75 263.84C154.4 263.4 155.91 262.7 157.25 261.81C157.5 259.5 155.91 256.76 151.25 257.65H151.26Z" fill="#EFFFF4"/>
<path d="M111.08 221.26L67.1201 246.64L111.08 272.02L155.05 246.64L111.08 221.26Z" fill="#00CC57"/>
<path opacity="0.2" d="M111.08 221.26L67.1201 246.64L111.08 272.02L155.05 246.64L111.08 221.26Z" fill="white"/>
<path d="M155.05 246.64L148.2 293.45L104.24 318.83L111.08 272.02L155.05 246.64Z" fill="#00CC57"/>
<path d="M67.1201 246.64L74.1101 301.44L104.24 318.83L111.08 272.02L67.1201 246.64Z" fill="#00CC57"/>
<path opacity="0.2" d="M67.1201 246.64L74.1101 301.44L104.24 318.83L111.08 272.02L67.1201 246.64Z" fill="black"/>
<path d="M33.61 330.59L45.41 317.01L48.32 311.96L31.5 294.59L11.91 300.14L9 305.18L13.51 322.06L19.31 320.92L22.22 315.88L20.43 309.03L27.63 307.18L36.44 316.24L32.15 321.44L29.24 326.49L33.61 330.59Z" fill="#00CC57"/>
<path opacity="0.25" d="M33.61 330.59L45.41 317.01L48.32 311.96L31.5 294.59L11.91 300.14L9 305.18L13.51 322.06L19.31 320.92L22.22 315.88L20.43 309.03L27.63 307.18L36.44 316.24L32.15 321.44L29.24 326.49L33.61 330.59Z" fill="black"/>
<path d="M32.15 321.44L29.24 326.49L37.12 316.94L36.44 316.24L32.15 321.44Z" fill="#00CC57"/>
<path opacity="0.35" d="M32.15 321.44L29.24 326.49L37.12 316.94L36.44 316.24L32.15 321.44Z" fill="black"/>
<path d="M9 305.18L28.59 299.63L31.5 294.59L11.91 300.14L9 305.18Z" fill="#00CC57"/>
<path opacity="0.2" d="M9 305.18L28.59 299.63L31.5 294.59L11.91 300.14L9 305.18Z" fill="white"/>
<path d="M45.41 317.01L28.59 299.63L9 305.18L13.51 322.06L19.31 320.92L16.46 310.06L27.63 307.18L37.12 316.94L29.24 326.49L33.61 330.59L45.41 317.01Z" fill="#00CC57"/>
<path d="M16.46 310.06L19.31 320.92L22.22 315.88L20.43 309.03L16.46 310.06Z" fill="#00CC57"/>
<path opacity="0.25" d="M16.46 310.06L19.31 320.92L22.22 315.88L20.43 309.03L16.46 310.06Z" fill="black"/>
<path d="M27.4399 286.23C27.6599 285.52 28.3399 284.95 29.4499 284.7C31.6599 284.19 34.6999 285.12 36.2499 286.77C37.0199 287.6 37.2799 288.45 37.0599 289.16C36.9299 289.59 34.0599 298.98 33.9299 299.41C33.7099 300.12 33.0299 300.69 31.9199 300.94C29.7099 301.45 26.6699 300.52 25.1199 298.87C24.3499 298.04 24.0899 297.19 24.3099 296.48C24.4399 296.05 27.3099 286.66 27.4399 286.23Z" fill="#002410"/>
<path d="M36.24 286.77C37.01 287.6 37.27 288.45 37.05 289.16C36.83 289.87 36.15 290.44 35.04 290.69C32.83 291.2 29.79 290.27 28.24 288.62C27.47 287.79 27.21 286.94 27.43 286.23C27.65 285.52 28.33 284.95 29.44 284.7C31.65 284.19 34.69 285.12 36.24 286.77Z" fill="#00A346"/>
<path d="M86.7233 263.622C88.4746 255.231 83.0925 247.009 74.7018 245.258C66.3112 243.507 58.0895 248.889 56.3381 257.279C54.5868 265.67 59.9689 273.892 68.3596 275.643C76.7502 277.395 84.9719 272.012 86.7233 263.622Z" fill="#EFFFF4"/>
<path d="M56.5301 259.31C57.1601 251.04 64.4001 244.83 72.6701 245.46C80.9401 246.09 87.1501 253.33 86.5201 261.6C85.8901 269.87 78.6501 276.08 70.3801 275.45C62.1101 274.82 55.9001 267.58 56.5301 259.31ZM56.0501 259.28C55.4001 267.83 61.8001 275.28 70.3401 275.93C78.8901 276.58 86.3401 270.18 86.9901 261.64C87.6401 253.09 81.2401 245.64 72.7001 244.99C64.1501 244.34 56.7001 250.74 56.0501 259.28Z" fill="#EFFFF4"/>
<path d="M62.93 249.6C64.76 249.16 66.8699 249.92 68.8499 252C72.7999 256.15 74.6999 263.97 73.0899 269.47C72.2799 272.22 70.75 273.87 68.9199 274.31C62.0999 275.96 55.23 271.78 53.57 264.95C51.92 258.13 56.11 251.26 62.93 249.6Z" fill="#00CC57"/>
<path opacity="0.1" d="M68.8501 252C68.1001 251.21 67.3301 250.62 66.5601 250.2C69.7301 252.48 73.4501 260.98 70.1901 267.57C66.9301 274.14 59.0201 273.71 55.8201 269.67C58.7901 273.56 63.8701 275.54 68.9201 274.31C70.7501 273.87 72.2801 272.22 73.0901 269.47C74.7101 263.97 72.8101 256.15 68.8501 252Z" fill="black"/>
<path d="M56.8301 259.99C57.2401 260.07 57.6801 260.32 58.1001 260.74C59.4201 262.07 60.0901 264.6 59.6001 266.4C59.4401 266.97 59.1901 267.4 58.8701 267.68C58.1901 268.27 57.2201 268.17 56.3301 267.26C55.0101 265.93 54.3401 263.4 54.8301 261.6C55.1601 260.37 55.9501 259.8 56.8301 259.98V259.99Z" fill="#00CC57"/>
<path opacity="0.3" d="M56.8301 259.99C57.2401 260.07 57.6801 260.32 58.1001 260.74C59.4201 262.07 60.0901 264.6 59.6001 266.4C59.4401 266.97 59.1901 267.4 58.8701 267.68C58.1901 268.27 57.2201 268.17 56.3301 267.26C55.0101 265.93 54.3401 263.4 54.8301 261.6C55.1601 260.37 55.9501 259.8 56.8301 259.98V259.99Z" fill="black"/>
<path d="M56.8301 259.99C57.2401 260.07 57.6801 260.32 58.1001 260.74C59.4201 262.07 60.0901 264.6 59.6001 266.4C59.4401 266.97 59.1901 267.4 58.8701 267.68C58.4601 267.6 58.0201 267.35 57.6001 266.93C56.2801 265.6 55.6101 263.07 56.1001 261.27C56.2601 260.7 56.5101 260.27 56.8301 259.99Z" fill="black"/>
<path d="M84.5399 260.75C81.0399 265.61 76.7799 264.94 74.8599 269.83C73.8599 272.36 75.0799 274.09 76.4799 275.17C82.2099 273.24 86.5199 268.04 87.0099 261.64C87.1999 259.16 86.7899 256.77 85.9099 254.61C85.9999 256.28 85.9699 258.78 84.5499 260.76L84.5399 260.75Z" fill="#EFFFF4"/>
<path d="M30.2699 286.3C30.2899 286.17 30.3099 286.04 30.3499 285.91C34.4399 272.08 44.0699 262.96 56.1299 261.5C57.4799 261.34 58.7099 262.3 58.8799 263.66C59.0399 265.02 58.0799 266.24 56.7199 266.41C46.6899 267.62 38.5999 275.44 35.0899 287.32C34.6999 288.63 33.3299 289.37 32.0199 288.99C30.8399 288.64 30.1199 287.49 30.2699 286.32V286.3Z" fill="#03592B"/>
<path d="M114.01 244.69V223.82H101.25V244.69C101.25 245.63 101.87 246.57 103.12 247.29C105.61 248.73 109.65 248.73 112.14 247.29C113.39 246.57 114.01 245.63 114.01 244.68V244.69Z" fill="#00A346"/>
<path d="M101.26 240.69C101.26 241.63 101.88 242.57 103.13 243.29C105.62 244.73 109.66 244.73 112.15 243.29C113.4 242.57 114.02 241.63 114.02 240.69" stroke="#03592B" stroke-width="0.85" stroke-linecap="round" stroke-linejoin="round"/>
<path d="M101.26 236.69C101.26 237.63 101.88 238.57 103.13 239.29C105.62 240.73 109.66 240.73 112.15 239.29C113.4 238.57 114.02 237.63 114.02 236.68" stroke="#03592B" stroke-width="0.85" stroke-linecap="round" stroke-linejoin="round"/>
<path d="M101.26 232.69C101.26 233.63 101.88 234.57 103.13 235.29C105.62 236.73 109.66 236.73 112.15 235.29C113.4 234.57 114.02 233.63 114.02 232.69" stroke="#03592B" stroke-width="0.85" stroke-linecap="round" stroke-linejoin="round"/>
<path opacity="0.15" d="M104 223.82H101.25V244.69C101.25 245.63 101.87 246.57 103.12 247.29C103.39 247.45 103.69 247.58 104 247.71V234.05C107.24 234.76 110.61 235.1 114.01 234.94V223.81H104V223.82Z" fill="black"/>
<path d="M81.22 193.38C81.22 177.58 94.03 167.36 109.83 167.36C125.63 167.36 138.44 177.57 138.44 193.38V210.68C138.44 210.68 132.74 219.63 109.83 219.63C86.92 219.63 81.22 211.09 81.22 211.09V193.38Z" fill="#00CC57"/>
<path opacity="0.2" d="M81.22 193.38C81.22 177.58 94.03 167.36 109.83 167.36C125.63 167.36 138.44 177.57 138.44 193.38V210.68C138.44 210.68 132.74 219.63 109.83 219.63C86.92 219.63 81.22 211.09 81.22 211.09V193.38Z" fill="white"/>
<path opacity="0.2" d="M114.39 172.9C113.7 173.27 113 173.77 112.79 174.52C112.59 175.25 112.92 176.05 113.46 176.59C114 177.13 114.7 177.46 115.4 177.77C119.16 179.43 123.08 180.73 127.08 181.66C128.08 181.89 130.05 182.59 130.79 181.65C131.67 180.53 131.14 178.22 129.99 176.78C127.7 173.9 125.92 172.95 123.2 172.17C120.31 171.35 117.08 171.48 114.4 172.91L114.39 172.9Z" fill="white"/>
<path opacity="0.2" d="M138.45 199.79C138.45 199.79 136.85 208.45 125.51 212.69C114.17 216.93 101.86 215.57 94.3401 213.68C94.3401 213.68 110.44 221.53 127.07 213.99C141.62 207.39 138.45 199.79 138.45 199.79Z" fill="black"/>
<path opacity="0.6" d="M119.73 168.8C116.65 167.86 113.32 167.36 109.84 167.36C94.04 167.36 81.23 177.57 81.23 193.38V211.09C81.23 211.09 83.57 214.58 91.24 217.1C90.04 205.6 88.5 190.93 93.08 181.95C98.31 171.69 112.86 166.8 119.74 168.8H119.73Z" fill="#00CC57"/>
<path d="M108.96 205.14C106.62 205.14 104.72 203.24 104.72 200.9V198.93C104.72 196.59 106.62 194.69 108.96 194.69C111.3 194.69 113.2 196.59 113.2 198.93V200.9C113.2 203.24 111.3 205.14 108.96 205.14Z" fill="#03592B"/>
<path d="M130.29 198.33C128.28 199.08 127.21 198.14 126.82 197.1C126.58 196.45 126.36 194.82 126.56 192.87C126.77 190.83 127.76 189.26 129.6 188.29C131.44 187.32 132.89 188.54 133.19 189.69C133.42 190.57 133.52 191.87 133.4 193.51C133.28 195.12 132.27 197.47 130.29 198.34V198.33Z" fill="#03592B"/>
<path d="M141.41 198.68C140.26 197.36 138.45 197.21 138.45 197.21V199.79C138.45 204.02 135.66 208.25 130.07 211.47C120.36 217.07 105.42 217.8 94.3401 213.67V212.77C94.3401 209.43 91.9901 205.36 89.1001 203.69C86.2101 202.02 83.8601 203.37 83.8601 206.71C82.1001 204.52 81.2301 202.15 81.2301 199.78C80.2601 199.78 78.9601 200.3 78.9601 204.04C78.9601 208.68 78.7401 213.88 83.1401 219.63C90.2401 228.91 108.94 237.1 125.03 230.68C142.18 223.83 142.27 210.99 142.27 205.76C142.27 201.91 142.58 199.99 141.42 198.67L141.41 198.68Z" fill="#00CC57"/>
<path opacity="0.2" d="M141.41 198.68C140.26 197.36 138.45 197.21 138.45 197.21V199.79C138.45 204.02 135.66 208.25 130.07 211.47C120.36 217.07 105.42 217.8 94.3401 213.67V212.77C94.3401 209.43 91.9901 205.36 89.1001 203.69C86.2101 202.02 83.8601 203.37 83.8601 206.71C82.1001 204.52 81.2301 202.15 81.2301 199.78C80.2601 199.78 78.9601 200.3 78.9601 204.04C78.9601 208.68 78.7401 213.88 83.1401 219.63C90.2401 228.91 108.94 237.1 125.03 230.68C142.18 223.83 142.27 210.99 142.27 205.76C142.27 201.91 142.58 199.99 141.42 198.67L141.41 198.68Z" fill="white"/>
<path opacity="0.6" d="M115.11 231.66C96.1801 231.37 87.0501 221.53 84.6601 217.1C82.2601 212.67 82.4801 208.14 83.8601 208.72V206.71C82.1001 204.52 81.2301 202.15 81.2301 199.78C80.2601 199.78 78.9601 200.3 78.9601 204.04C78.9601 208.68 78.7401 213.88 83.1401 219.63C90.2401 228.91 108.94 237.1 125.03 230.68C129.74 228.8 133.16 226.47 135.64 223.97C131.28 227.28 124.26 231.8 115.13 231.66H115.11Z" fill="#00CC57"/>
<path opacity="0.2" d="M89.9199 204.26C91.7199 205.65 93.0699 208.62 93.0699 214.41L94.3399 213.67V212.77C94.3399 209.75 92.4199 206.15 89.9199 204.25V204.26Z" fill="black"/>
<path d="M138.45 199.79C138.45 204.02 135.66 208.25 130.07 211.47C120.36 217.07 105.42 217.8 94.3401 213.67L93.0701 214.41C93.0701 214.41 108.56 222.91 126.05 216.02C142.37 209.59 142.02 200.9 141.41 198.69C140.26 197.37 138.45 197.22 138.45 197.22V199.8V199.79Z" fill="#00CC57"/>
<path opacity="0.6" d="M138.45 199.79C138.45 204.02 135.66 208.25 130.07 211.47C120.36 217.07 105.42 217.8 94.3401 213.67L93.0701 214.41C93.0701 214.41 108.56 222.91 126.05 216.02C142.37 209.59 142.02 200.9 141.41 198.69C140.26 197.37 138.45 197.22 138.45 197.22V199.8V199.79Z" fill="white"/>
<path d="M88.3399 206.58C89.5399 207.27 90.4999 208.95 90.4999 210.33C90.4999 211.71 89.5299 212.27 88.3399 211.58C87.1399 210.89 86.1799 209.21 86.1799 207.83C86.1799 206.45 87.1499 205.89 88.3399 206.58Z" fill="#03592B"/>
<path d="M88.3399 206.58C87.9499 206.36 87.5899 206.28 87.2799 206.3C87.0699 206.56 86.9399 206.94 86.9399 207.44C86.9399 208.82 87.9099 210.5 89.0999 211.19C89.4899 211.41 89.8499 211.49 90.1599 211.47C90.3699 211.21 90.4999 210.83 90.4999 210.33C90.4999 208.95 89.5299 207.27 88.3399 206.58Z" fill="#00A346"/>
<path d="M83.86 206.72C82.1 204.53 81.23 202.16 81.23 199.79C80.82 199.79 80.34 199.89 79.94 200.28C79.55 201.23 79.45 202.64 80.25 204.54C81.49 207.51 83.87 208.73 83.87 208.73C83.87 208.73 83.79 208.15 83.87 206.72H83.86Z" fill="#00CC57"/>
<path opacity="0.5" d="M83.86 206.72C82.1 204.53 81.23 202.16 81.23 199.79C80.82 199.79 80.34 199.89 79.94 200.28C79.55 201.23 79.45 202.64 80.25 204.54C81.49 207.51 83.87 208.73 83.87 208.73C83.87 208.73 83.79 208.15 83.87 206.72H83.86Z" fill="white"/>
<path d="M106.58 173.02V157.65H102.85V173.02C102.85 173.3 103.03 173.57 103.4 173.78C104.13 174.2 105.31 174.2 106.04 173.78C106.4 173.57 106.59 173.29 106.59 173.02H106.58Z" fill="#00A346"/>
<path opacity="0.15" d="M102.85 160.28C103.43 160.44 104.05 160.53 104.68 160.53C105.31 160.53 105.97 160.43 106.58 160.26V157.64H102.85V160.27V160.28Z" fill="black"/>
<path d="M104.69 158.86C108.517 158.86 111.62 155.757 111.62 151.93C111.62 148.103 108.517 145 104.69 145C100.863 145 97.76 148.103 97.76 151.93C97.76 155.757 100.863 158.86 104.69 158.86Z" fill="#00CC57"/>
<path opacity="0.15" d="M104.69 155.56C99.69 154.68 97.97 150.24 100.18 146.68C98.7 147.95 97.76 149.83 97.76 151.93C97.76 155.76 100.86 158.86 104.69 158.86C108.52 158.86 111.62 155.76 111.62 151.93C111.33 154.1 109.12 156.34 104.69 155.56Z" fill="black"/>
<path opacity="0.3" d="M104.42 149.6C105.51 149.91 106.54 150.4 107.48 151.05C108.07 151.46 109 152.06 109.67 151.45C110.26 150.92 110.16 149.71 109.91 149.06C109.59 148.24 108.88 147.42 108.12 146.97C107.1 146.37 106 146.15 104.83 146.37C104.11 146.5 102.94 146.86 102.75 147.69C102.53 148.63 103.66 149.38 104.43 149.6H104.42Z" fill="white"/>
<path d="M56.41 341.89C54.01 357.32 63.41 373.78 77.4 378.66C91.39 383.54 104.67 375 107.07 359.57C109.47 344.14 100.07 327.68 86.08 322.8C72.09 317.92 58.81 326.46 56.41 341.89Z" fill="#00A346"/>
<path d="M76.26 378.22C76.64 378.37 77.02 378.52 77.41 378.66C80.4 379.7 83.35 380.13 86.18 380.01C73.48 376.14 74.59 357.27 76.36 353.37C71.14 362.8 74.79 374.37 76.27 378.22H76.26Z" fill="#00CC57"/>
<path opacity="0.3" d="M76.26 378.22C76.64 378.37 77.02 378.52 77.41 378.66C80.4 379.7 83.35 380.13 86.18 380.01C73.48 376.14 74.59 357.27 76.36 353.37C71.14 362.8 74.79 374.37 76.27 378.22H76.26Z" fill="white"/>
<path d="M99.8601 362.05C103.51 361.73 105.73 360.72 107.05 359.73C107.05 359.68 107.07 359.63 107.08 359.57C107.36 357.79 107.47 355.99 107.44 354.2C106.23 355.43 104.22 356.8 100.87 358.05C91.5401 361.53 80.7601 355.96 76.5901 352.92C83.1301 358.55 88.4101 363.04 99.8501 362.05H99.8601Z" fill="#00CC57"/>
<path opacity="0.3" d="M99.8601 362.05C103.51 361.73 105.73 360.72 107.05 359.73C107.05 359.68 107.07 359.63 107.08 359.57C107.36 357.79 107.47 355.99 107.44 354.2C106.23 355.43 104.22 356.8 100.87 358.05C91.5401 361.53 80.7601 355.96 76.5901 352.92C83.1301 358.55 88.4101 363.04 99.8501 362.05H99.8601Z" fill="white"/>
<path d="M76.6001 352.92C76.5201 353.03 76.4301 353.19 76.3501 353.37C76.4301 353.22 76.5101 353.07 76.6001 352.92Z" fill="#00CC57"/>
<path d="M101.41 335.11C100.43 333.64 99.3501 332.26 98.1701 330.97C86.8001 328.64 78.7501 340.38 76.6001 352.92C83.1601 333.9 97.0901 332.23 101.41 335.11Z" fill="#00CC57"/>
<path opacity="0.3" d="M101.41 335.11C100.43 333.64 99.3501 332.26 98.1701 330.97C86.8001 328.64 78.7501 340.38 76.6001 352.92C83.1601 333.9 97.0901 332.23 101.41 335.11Z" fill="white"/>
<path d="M56.0601 347.86C56.1101 349.43 56.2801 350.98 56.5501 352.53C60.9801 355.16 68.4101 355.57 76.6001 352.93C65.1501 353.36 58.9901 350.17 56.0601 347.87V347.86Z" fill="#00CC57"/>
<path opacity="0.3" d="M56.0601 347.86C56.1101 349.43 56.2801 350.98 56.5501 352.53C60.9801 355.16 68.4101 355.57 76.6001 352.93C65.1501 353.36 58.9901 350.17 56.0601 347.87V347.86Z" fill="white"/>
<path d="M71.99 322.36C69.91 323 67.95 323.97 66.16 325.23C64.51 337.8 68.07 346.57 76.6 352.92C67.12 340.97 70.22 327.57 71.99 322.36Z" fill="#00CC57"/>
<path opacity="0.3" d="M71.99 322.36C69.91 323 67.95 323.97 66.16 325.23C64.51 337.8 68.07 346.57 76.6 352.92C67.12 340.97 70.22 327.57 71.99 322.36Z" fill="white"/>
<path d="M68.9999 350.27C68.2799 354.89 71.0999 359.83 75.2899 361.29C79.4799 362.75 83.4699 360.19 84.1799 355.57C84.8999 350.95 82.0799 346.01 77.8899 344.55C73.6999 343.09 69.7099 345.65 68.9999 350.27Z" fill="#002410"/>
<path d="M77.9 344.54C76.71 344.12 75.54 344.04 74.45 344.23C73 345.29 71.95 346.99 71.61 349.15C70.89 353.77 73.71 358.71 77.9 360.17C79.09 360.59 80.26 360.67 81.35 360.48C82.8 359.42 83.85 357.72 84.19 355.56C84.91 350.94 82.09 346 77.9 344.54Z" fill="black"/>
<path opacity="0.2" d="M89.87 377.25C82.76 378.03 71.12 374.55 66.33 362.55C61.54 350.54 66.3399 344.17 69.8799 341.79C73.4199 339.41 73.8199 334.98 73.4499 329.52C73.0799 324.07 80.31 321.13 86.08 322.79C72.09 317.91 58.81 326.45 56.41 341.88C54.01 357.31 63.41 373.77 77.4 378.65C88.67 382.58 99.48 377.8 104.51 367.72C101.81 372.98 96.93 376.47 89.86 377.25H89.87Z" fill="black"/>
<path opacity="0.15" d="M103.72 351.94C104.92 351.61 104.94 349.93 104.87 348.97C104.79 347.91 104.65 346.85 104.44 345.8C103.54 341.25 101.47 336.94 98.47 333.41C95.8 330.26 92.29 326.67 87.78 327.14C86.53 327.27 85.12 327.89 84.87 329.12C84.62 330.32 85.59 331.4 86.49 332.23C87.84 333.46 89.22 334.66 90.54 335.92C94.8 340.03 98.27 345.04 101.17 350.16C101.64 351 102.59 352.25 103.73 351.94H103.72ZM105.42 355.05C104.9 353.81 103.55 353.91 103.06 355.09C102.85 355.61 102.72 356.16 102.67 356.71C102.62 357.33 102.74 358.25 103.34 358.59C103.6 358.74 103.91 358.78 104.2 358.74C105.26 358.59 105.61 357.67 105.63 356.73C105.63 356.16 105.63 355.57 105.42 355.04V355.05Z" fill="white"/>
</g>
<g filter="url(#filter3_d_1567_2111)">
<path d="M198 27.3097C198 14.9884 207.988 5 220.31 5H349.887C362.208 5 372.197 14.9884 372.197 27.3097C372.197 39.631 362.208 49.6194 349.887 49.6194H220.31C207.988 49.6194 198 39.631 198 27.3097Z" fill="white" shape-rendering="crispEdges"/>
<path d="M232.546 23.9633C232.548 22.9727 232.22 22.0098 231.614 21.2262C231.009 20.4425 230.159 19.8828 229.2 19.6352C229.119 18.6322 228.738 17.6769 228.106 16.8938C227.474 16.1106 226.621 15.5359 225.658 15.2446C224.695 14.9532 223.666 14.9587 222.706 15.2604C221.746 15.562 220.9 16.1458 220.276 16.9357C219.812 16.3446 219.219 15.8667 218.542 15.5382C217.866 15.2097 217.124 15.0391 216.372 15.0394C215.112 15.0375 213.897 15.5086 212.967 16.3597C212.038 17.2107 211.461 18.3796 211.352 19.6352C210.566 19.8377 209.851 20.2507 209.282 20.8298C208.714 21.4088 208.314 22.1319 208.126 22.9213C207.937 23.7107 207.968 24.5365 208.214 25.3097C208.46 26.083 208.913 26.7745 209.523 27.3097C208.913 27.845 208.46 28.5364 208.214 29.3097C207.968 30.0829 207.937 30.9087 208.126 31.6981C208.314 32.4875 208.714 33.2106 209.282 33.7897C209.851 34.3687 210.566 34.7817 211.352 34.9843C211.433 35.9872 211.815 36.9425 212.446 37.7257C213.078 38.5088 213.931 39.0835 214.894 39.3749C215.857 39.6662 216.886 39.6607 217.846 39.359C218.806 39.0574 219.653 38.4736 220.276 37.6837C220.741 38.2749 221.334 38.7527 222.01 39.0812C222.686 39.4097 223.428 39.5803 224.18 39.58C225.441 39.582 226.656 39.1108 227.585 38.2598C228.515 37.4087 229.091 36.2398 229.2 34.9843C229.986 34.7817 230.702 34.3687 231.27 33.7897C231.839 33.2106 232.239 32.4875 232.427 31.6981C232.615 30.9087 232.584 30.0829 232.338 29.3097C232.092 28.5364 231.639 27.845 231.029 27.3097C231.505 26.8916 231.887 26.3769 232.148 25.7999C232.41 25.2229 232.546 24.5968 232.546 23.9633ZM216.372 37.3491C215.632 37.3491 214.923 37.0553 214.4 36.5323C213.877 36.0093 213.583 35.3 213.583 34.5604C213.574 34.4267 213.574 34.2925 213.583 34.1588C213.606 33.9998 213.594 33.8377 213.548 33.6838C213.502 33.5299 213.423 33.3877 213.317 33.267C213.211 33.1462 213.081 33.0498 212.934 32.9842C212.787 32.9187 212.628 32.8856 212.468 32.8871C211.946 32.8977 211.437 32.7248 211.029 32.3987C210.621 32.0726 210.341 31.6139 210.237 31.1024C210.22 30.9541 210.22 30.8044 210.237 30.6562C210.237 30.2001 210.377 29.755 210.637 29.3807C210.898 29.0065 211.267 28.7212 211.695 28.5632C212.123 28.4052 212.589 28.3821 213.03 28.497C213.471 28.612 213.867 28.8594 214.163 29.206C214.368 29.3761 214.627 29.4673 214.893 29.463C215.16 29.4588 215.416 29.3595 215.615 29.183C215.814 29.0065 215.944 28.7645 215.981 28.5007C216.017 28.2369 215.958 27.9688 215.814 27.7448C215.399 27.2627 214.886 26.875 214.309 26.6075C213.732 26.3401 213.104 26.1992 212.468 26.1942C211.876 26.1942 211.309 25.9592 210.89 25.5408C210.472 25.1224 210.237 24.5549 210.237 23.9633C210.22 23.815 210.22 23.6653 210.237 23.5171C210.237 23.5171 210.237 23.4167 210.237 23.3609C210.26 23.2732 210.29 23.1874 210.326 23.1043C210.349 23.0452 210.379 22.989 210.415 22.937C210.446 22.863 210.483 22.7921 210.527 22.7251C210.564 22.6704 210.605 22.6182 210.65 22.5689C210.692 22.5081 210.74 22.452 210.795 22.4016C210.841 22.3512 210.894 22.3063 210.951 22.2677L211.118 22.1227L211.352 22.0223C211.416 21.9822 211.483 21.9486 211.553 21.9219C211.614 21.893 211.677 21.8705 211.743 21.855C211.815 21.8261 211.89 21.8037 211.966 21.7881H212.167L212.468 21.7323C212.784 21.737 213.096 21.8091 213.383 21.9438C213.669 22.0784 213.924 22.2725 214.13 22.5131C214.224 22.6289 214.341 22.7246 214.473 22.7945C214.605 22.8643 214.75 22.9069 214.899 22.9198C215.047 22.9327 215.197 22.9155 215.339 22.8693C215.481 22.8232 215.613 22.7489 215.726 22.651C215.838 22.5532 215.93 22.4336 215.996 22.2995C216.062 22.1653 216.1 22.0194 216.108 21.8702C216.117 21.7211 216.095 21.5718 216.044 21.4312C215.994 21.2906 215.916 21.1616 215.814 21.0518C215.223 20.3806 214.447 19.8994 213.583 19.6686C213.635 18.929 213.978 18.2403 214.538 17.7539C214.815 17.5131 215.137 17.3292 215.485 17.2127C215.833 17.0963 216.201 17.0495 216.567 17.0751C216.933 17.1008 217.291 17.1983 217.62 17.3621C217.948 17.526 218.241 17.7529 218.482 18.03C218.723 18.3071 218.907 18.6289 219.023 18.977C219.14 19.3252 219.186 19.6928 219.161 20.0591V34.5604C219.161 35.3 218.867 36.0093 218.344 36.5323C217.821 37.0553 217.112 37.3491 216.372 37.3491ZM228.085 28.4252C228.676 28.4252 229.244 28.6602 229.662 29.0786C230.08 29.497 230.316 30.0645 230.316 30.6562C230.316 31.2479 230.08 31.8153 229.662 32.2337C229.244 32.6521 228.676 32.8871 228.085 32.8871C227.923 32.8885 227.763 32.9251 227.616 32.9945C227.47 33.0638 227.34 33.1642 227.237 33.2887C227.131 33.4116 227.053 33.5561 227.009 33.7122C226.964 33.8682 226.955 34.0321 226.98 34.1923C226.991 34.3147 226.991 34.4379 226.98 34.5604C226.98 35.3 226.686 36.0093 226.163 36.5323C225.64 37.0553 224.931 37.3491 224.192 37.3491C223.452 37.3491 222.743 37.0553 222.22 36.5323C221.697 36.0093 221.403 35.3 221.403 34.5604V32.8871H222.831C223.076 33.3125 223.455 33.6449 223.909 33.8328C224.363 34.0207 224.866 34.0537 225.34 33.9266C225.814 33.7995 226.234 33.5194 226.533 33.1298C226.832 32.7402 226.994 32.2628 226.994 31.7717C226.994 31.2805 226.832 30.8032 226.533 30.4135C226.234 30.0239 225.814 29.7438 225.34 29.6167C224.866 29.4896 224.363 29.5226 223.909 29.7105C223.455 29.8984 223.076 30.2309 222.831 30.6562H221.392V25.0787H222.819C223.065 25.5041 223.444 25.8365 223.898 26.0244C224.352 26.2123 224.855 26.2453 225.329 26.1182C225.803 25.9911 226.223 25.711 226.521 25.3214C226.82 24.9318 226.983 24.4544 226.983 23.9633C226.983 23.4721 226.82 22.9948 226.521 22.6051C226.223 22.2155 225.803 21.9354 225.329 21.8083C224.855 21.6812 224.352 21.7142 223.898 21.9021C223.444 22.0901 223.065 22.4225 222.819 22.8478H221.392V20.0591C221.392 19.3194 221.685 18.6101 222.208 18.0871C222.731 17.5642 223.441 17.2703 224.18 17.2703C224.92 17.2703 225.629 17.5642 226.152 18.0871C226.675 18.6101 226.969 19.3194 226.969 20.0591C226.978 20.1928 226.978 20.3269 226.969 20.4606C226.947 20.6197 226.959 20.7817 227.005 20.9356C227.05 21.0895 227.129 21.2317 227.235 21.3525C227.341 21.4732 227.472 21.5696 227.618 21.6352C227.765 21.7008 227.924 21.7339 228.085 21.7323C228.676 21.7323 229.244 21.9673 229.662 22.3857C230.08 22.8041 230.316 23.3716 230.316 23.9633C230.316 24.5549 230.08 25.1224 229.662 25.5408C229.244 25.9592 228.676 26.1942 228.085 26.1942C227.789 26.1942 227.505 26.3118 227.296 26.5209C227.087 26.7301 226.969 27.0139 226.969 27.3097C226.969 27.6056 227.087 27.8893 227.296 28.0985C227.505 28.3077 227.789 28.4252 228.085 28.4252Z" fill="#05803E"/>
<path d="M239.398 31.8098C239.841 30.5745 240.25 29.4559 240.625 28.4543C241.001 27.4443 241.368 26.5094 241.727 25.6497C242.094 24.7816 242.474 23.9427 242.866 23.1331H244.482C244.774 23.7424 245.057 24.3684 245.333 25.0111C245.608 25.6455 245.884 26.3091 246.159 27.0019C246.435 27.6947 246.719 28.4376 247.011 29.2306C247.311 30.0235 247.624 30.8833 247.95 31.8098H246.122C246.013 31.4759 245.896 31.1462 245.771 30.8207C245.654 30.4868 245.542 30.1529 245.433 29.819H241.865C241.748 30.1529 241.627 30.4868 241.502 30.8207C241.385 31.1462 241.276 31.4759 241.176 31.8098H239.398ZM242.278 28.4543H245.007C244.874 28.062 244.74 27.6905 244.607 27.34C244.473 26.981 244.344 26.6513 244.219 26.3508C244.102 26.042 243.993 25.7666 243.893 25.5245C243.793 25.2741 243.705 25.0571 243.63 24.8734C243.563 25.0571 243.48 25.2741 243.38 25.5245C243.288 25.7666 243.179 26.042 243.054 26.3508C242.937 26.6513 242.812 26.981 242.679 27.34C242.545 27.6905 242.411 28.062 242.278 28.4543ZM249.003 31.8098V25.5871C249.303 25.4786 249.671 25.3742 250.105 25.2741C250.547 25.1656 251.044 25.1113 251.595 25.1113C251.737 25.1113 251.904 25.1238 252.096 25.1489C252.288 25.1656 252.471 25.1906 252.646 25.224C252.83 25.2574 252.98 25.2991 253.097 25.3492L252.822 26.7014C252.672 26.6597 252.484 26.618 252.258 26.5762C252.041 26.5345 251.795 26.5136 251.52 26.5136C251.353 26.5136 251.182 26.5261 251.006 26.5512C250.839 26.5762 250.714 26.6054 250.631 26.6388V31.8098H249.003ZM256.58 31.9601C255.937 31.9601 255.432 31.8474 255.065 31.622C254.706 31.3883 254.451 31.0669 254.301 30.6579C254.159 30.2406 254.088 29.7481 254.088 29.1805V23.5462L255.716 23.2833V25.249H258.032V26.6138H255.716V29.1805C255.716 29.4893 255.749 29.7481 255.816 29.9568C255.891 30.1571 256.008 30.3073 256.166 30.4075C256.333 30.5077 256.555 30.5578 256.83 30.5578C257.055 30.5578 257.272 30.5369 257.481 30.4952C257.698 30.4451 257.89 30.3866 258.057 30.3199L258.295 31.6095C258.095 31.693 257.857 31.7723 257.581 31.8474C257.306 31.9225 256.972 31.9601 256.58 31.9601ZM259.543 31.8098V25.249H261.17V31.8098H259.543ZM260.357 24.0721C260.09 24.0721 259.856 23.9845 259.655 23.8092C259.455 23.6255 259.355 23.3793 259.355 23.0705C259.355 22.7616 259.455 22.5196 259.655 22.3443C259.856 22.169 260.09 22.0813 260.357 22.0813C260.632 22.0813 260.866 22.169 261.058 22.3443C261.258 22.5196 261.358 22.7616 261.358 23.0705C261.358 23.3793 261.258 23.6255 261.058 23.8092C260.866 23.9845 260.632 24.0721 260.357 24.0721ZM263.027 31.8098V24.8233C263.027 23.9719 263.257 23.3042 263.716 22.82C264.175 22.3359 264.86 22.0939 265.77 22.0939C266.12 22.0939 266.408 22.1231 266.633 22.1815C266.867 22.2399 267.051 22.2984 267.184 22.3568L266.896 23.6464C266.779 23.5963 266.638 23.5588 266.471 23.5337C266.304 23.5003 266.124 23.4836 265.932 23.4836C265.448 23.4836 265.114 23.6088 264.931 23.8593C264.747 24.1013 264.655 24.431 264.655 24.8484V25.249H267.022V26.6138H264.655V31.8098H263.027ZM268.148 31.8098V25.249H269.789V31.8098H268.148ZM268.962 24.0721C268.687 24.0721 268.449 23.9845 268.249 23.8092C268.057 23.6255 267.961 23.3793 267.961 23.0705C267.961 22.7616 268.057 22.5196 268.249 22.3443C268.449 22.169 268.687 22.0813 268.962 22.0813C269.229 22.0813 269.463 22.169 269.663 22.3443C269.864 22.5196 269.964 22.7616 269.964 23.0705C269.964 23.3793 269.864 23.6255 269.663 23.8092C269.463 23.9845 269.229 24.0721 268.962 24.0721ZM274.641 31.9726C273.864 31.9726 273.23 31.8223 272.737 31.5218C272.245 31.2213 271.878 30.8123 271.636 30.2948C271.402 29.7773 271.285 29.1888 271.285 28.5294C271.285 27.8867 271.419 27.3066 271.686 26.7891C271.953 26.2632 272.333 25.8459 272.825 25.537C273.318 25.2282 273.906 25.0737 274.591 25.0737C274.941 25.0737 275.262 25.1071 275.555 25.1739C275.855 25.2323 276.131 25.3158 276.381 25.4243L276.03 26.739C275.855 26.6722 275.663 26.6138 275.454 26.5637C275.246 26.5136 275.004 26.4886 274.728 26.4886C274.136 26.4886 273.693 26.6764 273.401 27.052C273.109 27.4193 272.963 27.9117 272.963 28.5294C272.963 28.9468 273.021 29.3099 273.138 29.6187C273.255 29.9192 273.451 30.1529 273.727 30.3199C274.002 30.4785 274.365 30.5578 274.816 30.5578C275.066 30.5578 275.317 30.5327 275.567 30.4826C275.826 30.4326 276.051 30.3658 276.243 30.2823L276.494 31.6345C276.293 31.7263 276.03 31.8056 275.705 31.8724C275.379 31.9392 275.025 31.9726 274.641 31.9726ZM277.773 31.8098V25.249H279.401V31.8098H277.773ZM278.587 24.0721C278.32 24.0721 278.086 23.9845 277.886 23.8092C277.686 23.6255 277.586 23.3793 277.586 23.0705C277.586 22.7616 277.686 22.5196 277.886 22.3443C278.086 22.169 278.32 22.0813 278.587 22.0813C278.863 22.0813 279.096 22.169 279.288 22.3443C279.489 22.5196 279.589 22.7616 279.589 23.0705C279.589 23.3793 279.489 23.6255 279.288 23.8092C279.096 23.9845 278.863 24.0721 278.587 24.0721ZM283.537 31.9475C282.994 31.9475 282.519 31.8808 282.11 31.7472C281.701 31.6053 281.379 31.3799 281.145 31.0711C280.92 30.7539 280.807 30.3324 280.807 29.8065C280.807 29.3057 280.933 28.905 281.183 28.6045C281.442 28.3041 281.784 28.0912 282.21 27.966C282.635 27.8324 283.09 27.7657 283.574 27.7657C283.816 27.7657 284.038 27.7782 284.238 27.8032C284.447 27.8283 284.601 27.8575 284.701 27.8909V27.6655C284.701 27.4318 284.66 27.2231 284.576 27.0395C284.501 26.8558 284.363 26.7139 284.163 26.6138C283.971 26.5053 283.704 26.451 283.362 26.451C283.003 26.451 282.677 26.4761 282.385 26.5261C282.093 26.5762 281.851 26.6388 281.659 26.7139L281.446 25.3868C281.646 25.32 281.934 25.2532 282.31 25.1864C282.694 25.1113 283.103 25.0737 283.537 25.0737C284.23 25.0737 284.776 25.1823 285.177 25.3993C285.578 25.6163 285.862 25.921 286.028 26.3133C286.195 26.7056 286.279 27.1689 286.279 27.7031V31.6345C286.037 31.6846 285.678 31.7472 285.202 31.8223C284.735 31.9058 284.18 31.9475 283.537 31.9475ZM283.662 30.6704C283.879 30.6704 284.079 30.6663 284.263 30.6579C284.447 30.6412 284.593 30.6204 284.701 30.5953V28.9927C284.626 28.9676 284.505 28.9468 284.338 28.9301C284.18 28.905 284.013 28.8925 283.837 28.8925C283.595 28.8925 283.366 28.9176 283.149 28.9676C282.94 29.0094 282.769 29.0929 282.635 29.2181C282.502 29.3433 282.435 29.5269 282.435 29.769C282.435 30.1028 282.544 30.3366 282.761 30.4701C282.986 30.6037 283.286 30.6704 283.662 30.6704ZM290.46 31.935C289.826 31.9183 289.334 31.8265 288.983 31.6596C288.632 31.4926 288.386 31.2506 288.244 30.9334C288.111 30.6162 288.044 30.2322 288.044 29.7815V22.3568L289.684 22.0939V29.481C289.684 29.8316 289.747 30.0945 289.872 30.2698C289.997 30.4367 290.273 30.5411 290.698 30.5828L290.46 31.935ZM294.818 31.8098V25.249H296.446V31.8098H294.818ZM295.632 24.0721C295.365 24.0721 295.131 23.9845 294.931 23.8092C294.73 23.6255 294.63 23.3793 294.63 23.0705C294.63 22.7616 294.73 22.5196 294.931 22.3443C295.131 22.169 295.365 22.0813 295.632 22.0813C295.907 22.0813 296.141 22.169 296.333 22.3443C296.533 22.5196 296.633 22.7616 296.633 23.0705C296.633 23.3793 296.533 23.6255 296.333 23.8092C296.141 23.9845 295.907 24.0721 295.632 24.0721ZM298.303 31.8098V25.4744C298.603 25.3909 298.991 25.3075 299.467 25.224C299.951 25.1405 300.473 25.0988 301.032 25.0988C301.767 25.0988 302.334 25.2282 302.735 25.4869C303.144 25.7373 303.428 26.0879 303.586 26.5387C303.753 26.9894 303.837 27.5153 303.837 28.1162V31.8098H302.209V28.3416C302.209 27.8992 302.167 27.5445 302.084 27.2774C302.009 27.0019 301.879 26.8058 301.696 26.6889C301.512 26.5637 301.253 26.5011 300.92 26.5011C300.728 26.5011 300.54 26.5136 300.356 26.5387C300.181 26.5553 300.039 26.572 299.93 26.5887V31.8098H298.303ZM308.056 31.9601C307.413 31.9601 306.908 31.8474 306.541 31.622C306.182 31.3883 305.927 31.0669 305.777 30.6579C305.635 30.2406 305.564 29.7481 305.564 29.1805V23.5462L307.192 23.2833V25.249H309.508V26.6138H307.192V29.1805C307.192 29.4893 307.225 29.7481 307.292 29.9568C307.367 30.1571 307.484 30.3073 307.643 30.4075C307.81 30.5077 308.031 30.5578 308.306 30.5578C308.532 30.5578 308.749 30.5369 308.957 30.4952C309.174 30.4451 309.366 30.3866 309.533 30.3199L309.771 31.6095C309.571 31.693 309.333 31.7723 309.057 31.8474C308.782 31.9225 308.448 31.9601 308.056 31.9601ZM313.916 31.9726C313.131 31.9726 312.488 31.8265 311.987 31.5344C311.487 31.2339 311.111 30.8249 310.861 30.3073C310.619 29.7898 310.497 29.2097 310.497 28.567C310.497 27.7907 310.648 27.148 310.948 26.6388C311.249 26.1213 311.633 25.7332 312.1 25.4744C312.568 25.2073 313.064 25.0737 313.59 25.0737C314.191 25.0737 314.709 25.199 315.143 25.4494C315.585 25.6998 315.923 26.0712 316.157 26.5637C316.399 27.0562 316.52 27.6739 316.52 28.4167C316.52 28.5086 316.516 28.6129 316.507 28.7298C316.499 28.8466 316.491 28.951 316.482 29.0428H312.188C312.221 29.5186 312.401 29.89 312.726 30.1571C313.06 30.4242 313.523 30.5578 314.116 30.5578C314.483 30.5578 314.821 30.5244 315.13 30.4576C315.447 30.3908 315.698 30.3157 315.881 30.2322L316.119 31.5719C315.936 31.6637 315.635 31.7514 315.218 31.8349C314.809 31.9267 314.375 31.9726 313.916 31.9726ZM312.188 27.8909H314.93C314.921 27.6321 314.867 27.3942 314.767 27.1772C314.675 26.9518 314.533 26.7724 314.341 26.6388C314.158 26.5053 313.911 26.4385 313.603 26.4385C313.302 26.4385 313.052 26.5094 312.851 26.6513C312.659 26.7849 312.509 26.9644 312.401 27.1897C312.292 27.4067 312.221 27.6405 312.188 27.8909ZM320.453 31.935C319.819 31.9183 319.327 31.8265 318.976 31.6596C318.625 31.4926 318.379 31.2506 318.237 30.9334C318.104 30.6162 318.037 30.2322 318.037 29.7815V22.3568L319.677 22.0939V29.481C319.677 29.8316 319.74 30.0945 319.865 30.2698C319.99 30.4367 320.266 30.5411 320.691 30.5828L320.453 31.935ZM324.244 31.935C323.61 31.9183 323.117 31.8265 322.766 31.6596C322.416 31.4926 322.17 31.2506 322.028 30.9334C321.894 30.6162 321.827 30.2322 321.827 29.7815V22.3568L323.468 22.0939V29.481C323.468 29.8316 323.53 30.0945 323.655 30.2698C323.781 30.4367 324.056 30.5411 324.482 30.5828L324.244 31.935ZM325.63 31.8098V25.249H327.258V31.8098H325.63ZM326.444 24.0721C326.177 24.0721 325.943 23.9845 325.743 23.8092C325.543 23.6255 325.443 23.3793 325.443 23.0705C325.443 22.7616 325.543 22.5196 325.743 22.3443C325.943 22.169 326.177 22.0813 326.444 22.0813C326.72 22.0813 326.953 22.169 327.145 22.3443C327.346 22.5196 327.446 22.7616 327.446 23.0705C327.446 23.3793 327.346 23.6255 327.145 23.8092C326.953 23.9845 326.72 24.0721 326.444 24.0721ZM331.369 34.1637C330.968 34.1637 330.572 34.1261 330.179 34.051C329.795 33.9842 329.441 33.8966 329.115 33.7881L329.416 32.4108C329.683 32.5193 329.979 32.607 330.305 32.6737C330.63 32.7405 330.993 32.7739 331.394 32.7739C331.786 32.7739 332.099 32.7196 332.333 32.6111C332.575 32.5026 332.75 32.3399 332.859 32.1228C332.967 31.9142 333.021 31.6637 333.021 31.3716V31.0836C332.838 31.1754 332.629 31.2547 332.395 31.3215C332.17 31.3799 331.907 31.4092 331.607 31.4092C331.031 31.4092 330.53 31.2923 330.104 31.0586C329.678 30.8249 329.349 30.4785 329.115 30.0194C328.89 29.5603 328.777 28.9969 328.777 28.3291C328.777 27.6864 328.906 27.1229 329.165 26.6388C329.432 26.1547 329.812 25.7791 330.305 25.512C330.797 25.2365 331.385 25.0988 332.07 25.0988C332.546 25.0988 333.017 25.1405 333.485 25.224C333.952 25.2991 334.34 25.3826 334.649 25.4744V31.0961C334.649 32.1479 334.378 32.92 333.835 33.4124C333.301 33.9133 332.479 34.1637 331.369 34.1637ZM331.882 30.082C332.116 30.082 332.329 30.0528 332.521 29.9943C332.721 29.9276 332.888 29.8524 333.021 29.769V26.5261C332.913 26.5011 332.784 26.4802 332.633 26.4635C332.491 26.4468 332.308 26.4385 332.082 26.4385C331.724 26.4385 331.423 26.522 331.181 26.6889C330.939 26.8475 330.755 27.0687 330.63 27.3525C330.513 27.6363 330.455 27.9618 330.455 28.3291C330.455 28.6296 330.488 28.8925 330.555 29.1179C330.622 29.3349 330.718 29.5144 330.843 29.6563C330.968 29.7982 331.118 29.9067 331.294 29.9818C331.469 30.0486 331.665 30.082 331.882 30.082ZM339.568 31.9726C338.783 31.9726 338.141 31.8265 337.64 31.5344C337.139 31.2339 336.763 30.8249 336.513 30.3073C336.271 29.7898 336.15 29.2097 336.15 28.567C336.15 27.7907 336.3 27.148 336.601 26.6388C336.901 26.1213 337.285 25.7332 337.753 25.4744C338.22 25.2073 338.717 25.0737 339.243 25.0737C339.844 25.0737 340.361 25.199 340.795 25.4494C341.237 25.6998 341.576 26.0712 341.809 26.5637C342.051 27.0562 342.172 27.6739 342.172 28.4167C342.172 28.5086 342.168 28.6129 342.16 28.7298C342.151 28.8466 342.143 28.951 342.135 29.0428H337.84C337.874 29.5186 338.053 29.89 338.379 30.1571C338.713 30.4242 339.176 30.5578 339.768 30.5578C340.136 30.5578 340.474 30.5244 340.783 30.4576C341.1 30.3908 341.35 30.3157 341.534 30.2322L341.772 31.5719C341.588 31.6637 341.288 31.7514 340.87 31.8349C340.461 31.9267 340.027 31.9726 339.568 31.9726ZM337.84 27.8909H340.582C340.574 27.6321 340.52 27.3942 340.419 27.1772C340.328 26.9518 340.186 26.7724 339.994 26.6388C339.81 26.5053 339.564 26.4385 339.255 26.4385C338.955 26.4385 338.704 26.5094 338.504 26.6513C338.312 26.7849 338.162 26.9644 338.053 27.1897C337.945 27.4067 337.874 27.6405 337.84 27.8909ZM343.702 31.8098V25.4744C344.003 25.3909 344.391 25.3075 344.866 25.224C345.351 25.1405 345.872 25.0988 346.432 25.0988C347.166 25.0988 347.734 25.2282 348.134 25.4869C348.543 25.7373 348.827 26.0879 348.986 26.5387C349.153 26.9894 349.236 27.5153 349.236 28.1162V31.8098H347.608V28.3416C347.608 27.8992 347.567 27.5445 347.483 27.2774C347.408 27.0019 347.279 26.8058 347.095 26.6889C346.911 26.5637 346.653 26.5011 346.319 26.5011C346.127 26.5011 345.939 26.5136 345.755 26.5387C345.58 26.5553 345.438 26.572 345.33 26.5887V31.8098H343.702ZM354.044 31.9726C353.267 31.9726 352.633 31.8223 352.14 31.5218C351.648 31.2213 351.281 30.8123 351.039 30.2948C350.805 29.7773 350.688 29.1888 350.688 28.5294C350.688 27.8867 350.822 27.3066 351.089 26.7891C351.356 26.2632 351.736 25.8459 352.228 25.537C352.721 25.2282 353.309 25.0737 353.993 25.0737C354.344 25.0737 354.665 25.1071 354.958 25.1739C355.258 25.2323 355.533 25.3158 355.784 25.4243L355.433 26.739C355.258 26.6722 355.066 26.6138 354.857 26.5637C354.649 26.5136 354.407 26.4886 354.131 26.4886C353.539 26.4886 353.096 26.6764 352.804 27.052C352.512 27.4193 352.366 27.9117 352.366 28.5294C352.366 28.9468 352.424 29.3099 352.541 29.6187C352.658 29.9192 352.854 30.1529 353.13 30.3199C353.405 30.4785 353.768 30.5578 354.219 30.5578C354.469 30.5578 354.72 30.5327 354.97 30.4826C355.229 30.4326 355.454 30.3658 355.646 30.2823L355.897 31.6345C355.696 31.7263 355.433 31.8056 355.108 31.8724C354.782 31.9392 354.427 31.9726 354.044 31.9726ZM360.024 31.9726C359.239 31.9726 358.597 31.8265 358.096 31.5344C357.595 31.2339 357.219 30.8249 356.969 30.3073C356.727 29.7898 356.606 29.2097 356.606 28.567C356.606 27.7907 356.756 27.148 357.057 26.6388C357.357 26.1213 357.741 25.7332 358.209 25.4744C358.676 25.2073 359.173 25.0737 359.699 25.0737C360.299 25.0737 360.817 25.199 361.251 25.4494C361.693 25.6998 362.032 26.0712 362.265 26.5637C362.507 27.0562 362.628 27.6739 362.628 28.4167C362.628 28.5086 362.624 28.6129 362.616 28.7298C362.607 28.8466 362.599 28.951 362.591 29.0428H358.296C358.33 29.5186 358.509 29.89 358.835 30.1571C359.168 30.4242 359.632 30.5578 360.224 30.5578C360.592 30.5578 360.93 30.5244 361.239 30.4576C361.556 30.3908 361.806 30.3157 361.99 30.2322L362.228 31.5719C362.044 31.6637 361.744 31.7514 361.326 31.8349C360.917 31.9267 360.483 31.9726 360.024 31.9726ZM358.296 27.8909H361.038C361.03 27.6321 360.976 27.3942 360.875 27.1772C360.784 26.9518 360.642 26.7724 360.45 26.6388C360.266 26.5053 360.02 26.4385 359.711 26.4385C359.411 26.4385 359.16 26.5094 358.96 26.6513C358.768 26.7849 358.618 26.9644 358.509 27.1897C358.401 27.4067 358.33 27.6405 358.296 27.8909Z" fill="#05803E"/>
</g>
<g filter="url(#filter4_d_1567_2111)">
<path d="M306 121.31C306 108.988 315.988 99 328.31 99H498.887C511.208 99 521.197 108.988 521.197 121.31C521.197 133.631 511.208 143.619 498.887 143.619H328.31C315.988 143.619 306 133.631 306 121.31Z" fill="white" shape-rendering="crispEdges"/>
<path d="M340.502 129.821L338.349 124.444V112.386C338.349 111.772 337.847 111.27 337.234 111.27H319.386C318.772 111.27 318.27 111.772 318.27 112.386V124.444L316.118 129.821C315.984 130.167 316.028 130.557 316.229 130.858C316.441 131.159 316.787 131.349 317.155 131.349H339.465C339.833 131.349 340.179 131.159 340.39 130.858C340.602 130.557 340.636 130.167 340.502 129.821ZM327.194 113.501C327.194 114.115 327.696 114.617 328.31 114.617C328.923 114.617 329.425 114.115 329.425 113.501H336.118V123.541H320.501V113.501H327.194ZM332.772 129.118L331.679 126.887H324.963L323.848 129.118H318.806L320.144 125.772H336.486L337.825 129.118H332.772Z" fill="#05803E"/>
<path d="M323.848 122.581H332.772C333.385 122.581 333.887 122.079 333.887 121.466C333.887 120.852 333.385 120.35 332.772 120.35H331.656V117.963C331.656 117.35 331.154 116.848 330.541 116.848C329.927 116.848 329.425 117.35 329.425 117.963V120.35H327.194V116.848C327.194 116.234 326.692 115.732 326.079 115.732C325.465 115.732 324.963 116.234 324.963 116.848V120.35H323.848C323.234 120.35 322.732 120.852 322.732 121.466C322.732 122.079 323.234 122.581 323.848 122.581Z" fill="#05803E"/>
<path d="M348.3 125.81V117.271C348.7 117.187 349.122 117.129 349.564 117.095C350.007 117.054 350.407 117.033 350.766 117.033C352.043 117.033 353.016 117.267 353.683 117.734C354.36 118.193 354.698 118.898 354.698 119.85C354.698 120.468 354.552 120.969 354.259 121.352C353.967 121.728 353.554 122.02 353.02 122.229C353.187 122.438 353.366 122.68 353.558 122.955C353.759 123.231 353.955 123.527 354.147 123.844C354.347 124.161 354.539 124.487 354.723 124.821C354.906 125.155 355.073 125.484 355.224 125.81H353.32C353.103 125.409 352.874 125.013 352.632 124.62C352.398 124.22 352.164 123.84 351.931 123.481C351.697 123.122 351.472 122.813 351.254 122.554C351.221 122.554 351.188 122.559 351.154 122.567C351.129 122.567 351.104 122.567 351.079 122.567H350.015V125.81H348.3ZM350.015 121.202H350.704C351.204 121.202 351.618 121.165 351.943 121.09C352.277 121.006 352.523 120.864 352.682 120.664C352.849 120.464 352.932 120.188 352.932 119.838C352.932 119.504 352.849 119.241 352.682 119.049C352.523 118.848 352.285 118.706 351.968 118.623C351.659 118.54 351.296 118.498 350.879 118.498C350.695 118.498 350.532 118.506 350.391 118.523C350.249 118.531 350.123 118.54 350.015 118.548V121.202ZM359.026 125.973C358.4 125.973 357.845 125.831 357.361 125.547C356.885 125.255 356.513 124.85 356.246 124.332C355.979 123.815 355.846 123.21 355.846 122.517C355.846 121.824 355.983 121.223 356.259 120.714C356.534 120.205 356.91 119.804 357.386 119.512C357.87 119.22 358.417 119.074 359.026 119.074C359.644 119.074 360.19 119.22 360.666 119.512C361.15 119.796 361.526 120.196 361.793 120.714C362.06 121.223 362.194 121.824 362.194 122.517C362.194 123.21 362.06 123.815 361.793 124.332C361.534 124.85 361.167 125.255 360.691 125.547C360.224 125.831 359.669 125.973 359.026 125.973ZM359.026 124.57C359.343 124.57 359.61 124.487 359.827 124.32C360.053 124.153 360.224 123.915 360.341 123.606C360.466 123.297 360.528 122.934 360.528 122.517C360.528 122.1 360.466 121.741 360.341 121.44C360.224 121.14 360.053 120.906 359.827 120.739C359.61 120.572 359.343 120.489 359.026 120.489C358.709 120.489 358.437 120.572 358.212 120.739C357.987 120.906 357.816 121.14 357.699 121.44C357.582 121.741 357.523 122.1 357.523 122.517C357.523 122.934 357.582 123.297 357.699 123.606C357.816 123.907 357.987 124.145 358.212 124.32C358.437 124.487 358.709 124.57 359.026 124.57ZM366.332 125.973C366.015 125.973 365.694 125.952 365.368 125.91C365.043 125.877 364.738 125.835 364.454 125.785C364.171 125.726 363.924 125.664 363.716 125.597V116.357L365.343 116.094V119.449C365.535 119.358 365.752 119.278 365.994 119.211C366.245 119.145 366.516 119.111 366.808 119.111C367.434 119.111 367.96 119.253 368.386 119.537C368.82 119.821 369.145 120.221 369.362 120.739C369.588 121.248 369.701 121.845 369.701 122.529C369.701 123.231 369.567 123.84 369.3 124.357C369.033 124.867 368.645 125.263 368.135 125.547C367.635 125.831 367.034 125.973 366.332 125.973ZM366.32 124.57C366.687 124.57 366.996 124.487 367.246 124.32C367.505 124.145 367.701 123.903 367.835 123.594C367.969 123.285 368.035 122.918 368.035 122.492C368.035 122.175 368.006 121.895 367.948 121.653C367.889 121.403 367.797 121.194 367.672 121.027C367.547 120.852 367.388 120.722 367.196 120.639C367.013 120.547 366.787 120.501 366.52 120.501C366.287 120.501 366.061 120.534 365.844 120.601C365.636 120.668 365.469 120.747 365.343 120.839V124.483C365.444 124.499 365.577 124.52 365.744 124.545C365.911 124.562 366.103 124.57 366.32 124.57ZM374.053 125.973C373.427 125.973 372.872 125.831 372.388 125.547C371.912 125.255 371.541 124.85 371.274 124.332C371.006 123.815 370.873 123.21 370.873 122.517C370.873 121.824 371.011 121.223 371.286 120.714C371.561 120.205 371.937 119.804 372.413 119.512C372.897 119.22 373.444 119.074 374.053 119.074C374.671 119.074 375.217 119.22 375.693 119.512C376.177 119.796 376.553 120.196 376.82 120.714C377.087 121.223 377.221 121.824 377.221 122.517C377.221 123.21 377.087 123.815 376.82 124.332C376.561 124.85 376.194 125.255 375.718 125.547C375.251 125.831 374.696 125.973 374.053 125.973ZM374.053 124.57C374.37 124.57 374.637 124.487 374.854 124.32C375.08 124.153 375.251 123.915 375.368 123.606C375.493 123.297 375.556 122.934 375.556 122.517C375.556 122.1 375.493 121.741 375.368 121.44C375.251 121.14 375.08 120.906 374.854 120.739C374.637 120.572 374.37 120.489 374.053 120.489C373.736 120.489 373.465 120.572 373.239 120.739C373.014 120.906 372.843 121.14 372.726 121.44C372.609 121.741 372.551 122.1 372.551 122.517C372.551 122.934 372.609 123.297 372.726 123.606C372.843 123.907 373.014 124.145 373.239 124.32C373.465 124.487 373.736 124.57 374.053 124.57ZM381.172 125.96C380.529 125.96 380.024 125.847 379.657 125.622C379.298 125.388 379.043 125.067 378.893 124.658C378.751 124.241 378.68 123.748 378.68 123.18V117.546L380.308 117.283V119.249H382.624V120.614H380.308V123.18C380.308 123.489 380.341 123.748 380.408 123.957C380.483 124.157 380.6 124.307 380.759 124.408C380.926 124.508 381.147 124.558 381.422 124.558C381.648 124.558 381.865 124.537 382.073 124.495C382.29 124.445 382.482 124.387 382.649 124.32L382.887 125.609C382.687 125.693 382.449 125.772 382.173 125.847C381.898 125.922 381.564 125.96 381.172 125.96ZM384.135 125.81V119.249H385.763V125.81H384.135ZM384.949 118.072C384.682 118.072 384.448 117.984 384.248 117.809C384.047 117.626 383.947 117.379 383.947 117.07C383.947 116.762 384.047 116.52 384.248 116.344C384.448 116.169 384.682 116.081 384.949 116.081C385.224 116.081 385.458 116.169 385.65 116.344C385.85 116.52 385.95 116.762 385.95 117.07C385.95 117.379 385.85 117.626 385.65 117.809C385.458 117.984 385.224 118.072 384.949 118.072ZM390.637 125.973C389.861 125.973 389.227 125.822 388.734 125.522C388.242 125.221 387.874 124.812 387.632 124.295C387.399 123.777 387.282 123.189 387.282 122.529C387.282 121.887 387.415 121.307 387.682 120.789C387.949 120.263 388.329 119.846 388.822 119.537C389.314 119.228 389.903 119.074 390.587 119.074C390.938 119.074 391.259 119.107 391.551 119.174C391.852 119.232 392.127 119.316 392.378 119.424L392.027 120.739C391.852 120.672 391.66 120.614 391.451 120.564C391.242 120.514 391 120.489 390.725 120.489C390.132 120.489 389.69 120.676 389.398 121.052C389.105 121.419 388.959 121.912 388.959 122.529C388.959 122.947 389.018 123.31 389.135 123.619C389.252 123.919 389.448 124.153 389.723 124.32C389.999 124.478 390.362 124.558 390.812 124.558C391.063 124.558 391.313 124.533 391.564 124.483C391.822 124.433 392.048 124.366 392.24 124.282L392.49 125.635C392.29 125.726 392.027 125.806 391.701 125.872C391.376 125.939 391.021 125.973 390.637 125.973ZM396.741 128.126V119.474C396.95 119.408 397.196 119.349 397.48 119.299C397.764 119.241 398.068 119.195 398.394 119.161C398.719 119.12 399.041 119.099 399.358 119.099C400.059 119.099 400.66 119.241 401.161 119.524C401.67 119.8 402.058 120.196 402.325 120.714C402.592 121.223 402.726 121.828 402.726 122.529C402.726 123.206 402.613 123.798 402.388 124.307C402.171 124.817 401.845 125.217 401.411 125.509C400.986 125.793 400.46 125.935 399.834 125.935C399.542 125.935 399.27 125.902 399.02 125.835C398.778 125.776 398.561 125.697 398.369 125.597V128.126H396.741ZM399.546 124.545C399.813 124.545 400.038 124.504 400.222 124.42C400.414 124.328 400.572 124.199 400.698 124.032C400.823 123.857 400.915 123.648 400.973 123.406C401.032 123.164 401.061 122.884 401.061 122.567C401.061 122.15 400.994 121.787 400.86 121.478C400.727 121.169 400.531 120.931 400.272 120.764C400.022 120.589 399.713 120.501 399.345 120.501C399.128 120.501 398.936 120.514 398.769 120.539C398.603 120.555 398.469 120.572 398.369 120.589V124.22C398.494 124.303 398.661 124.378 398.87 124.445C399.087 124.512 399.312 124.545 399.546 124.545ZM404.236 125.81V119.587C404.537 119.479 404.904 119.374 405.338 119.274C405.781 119.166 406.277 119.111 406.828 119.111C406.97 119.111 407.137 119.124 407.329 119.149C407.521 119.166 407.705 119.191 407.88 119.224C408.063 119.257 408.214 119.299 408.331 119.349L408.055 120.701C407.905 120.66 407.717 120.618 407.492 120.576C407.275 120.534 407.028 120.514 406.753 120.514C406.586 120.514 406.415 120.526 406.24 120.551C406.073 120.576 405.947 120.605 405.864 120.639V125.81H404.236ZM412.128 125.973C411.502 125.973 410.947 125.831 410.463 125.547C409.987 125.255 409.616 124.85 409.349 124.332C409.082 123.815 408.948 123.21 408.948 122.517C408.948 121.824 409.086 121.223 409.361 120.714C409.637 120.205 410.012 119.804 410.488 119.512C410.972 119.22 411.519 119.074 412.128 119.074C412.746 119.074 413.293 119.22 413.769 119.512C414.253 119.796 414.628 120.196 414.895 120.714C415.162 121.223 415.296 121.824 415.296 122.517C415.296 123.21 415.162 123.815 414.895 124.332C414.637 124.85 414.269 125.255 413.794 125.547C413.326 125.831 412.771 125.973 412.128 125.973ZM412.128 124.57C412.446 124.57 412.713 124.487 412.93 124.32C413.155 124.153 413.326 123.915 413.443 123.606C413.568 123.297 413.631 122.934 413.631 122.517C413.631 122.1 413.568 121.741 413.443 121.44C413.326 121.14 413.155 120.906 412.93 120.739C412.713 120.572 412.446 120.489 412.128 120.489C411.811 120.489 411.54 120.572 411.314 120.739C411.089 120.906 410.918 121.14 410.801 121.44C410.684 121.741 410.626 122.1 410.626 122.517C410.626 122.934 410.684 123.297 410.801 123.606C410.918 123.907 411.089 124.145 411.314 124.32C411.54 124.487 411.811 124.57 412.128 124.57ZM419.836 125.973C419.059 125.973 418.425 125.822 417.932 125.522C417.44 125.221 417.073 124.812 416.831 124.295C416.597 123.777 416.48 123.189 416.48 122.529C416.48 121.887 416.614 121.307 416.881 120.789C417.148 120.263 417.528 119.846 418.02 119.537C418.513 119.228 419.101 119.074 419.785 119.074C420.136 119.074 420.457 119.107 420.75 119.174C421.05 119.232 421.325 119.316 421.576 119.424L421.225 120.739C421.05 120.672 420.858 120.614 420.649 120.564C420.441 120.514 420.199 120.489 419.923 120.489C419.331 120.489 418.888 120.676 418.596 121.052C418.304 121.419 418.158 121.912 418.158 122.529C418.158 122.947 418.216 123.31 418.333 123.619C418.45 123.919 418.646 124.153 418.922 124.32C419.197 124.478 419.56 124.558 420.011 124.558C420.261 124.558 420.512 124.533 420.762 124.483C421.021 124.433 421.246 124.366 421.438 124.282L421.689 125.635C421.488 125.726 421.225 125.806 420.9 125.872C420.574 125.939 420.219 125.973 419.836 125.973ZM425.816 125.973C425.031 125.973 424.389 125.827 423.888 125.534C423.387 125.234 423.011 124.825 422.761 124.307C422.519 123.79 422.398 123.21 422.398 122.567C422.398 121.791 422.548 121.148 422.849 120.639C423.149 120.121 423.533 119.733 424.001 119.474C424.468 119.207 424.965 119.074 425.491 119.074C426.091 119.074 426.609 119.199 427.043 119.449C427.485 119.7 427.824 120.071 428.057 120.564C428.299 121.056 428.42 121.674 428.42 122.417C428.42 122.509 428.416 122.613 428.408 122.73C428.399 122.847 428.391 122.951 428.383 123.043H424.088C424.122 123.519 424.301 123.89 424.627 124.157C424.96 124.424 425.424 124.558 426.016 124.558C426.384 124.558 426.722 124.524 427.031 124.458C427.348 124.391 427.598 124.316 427.782 124.232L428.02 125.572C427.836 125.664 427.536 125.751 427.118 125.835C426.709 125.927 426.275 125.973 425.816 125.973ZM424.088 121.891H426.83C426.822 121.632 426.768 121.394 426.667 121.177C426.576 120.952 426.434 120.772 426.242 120.639C426.058 120.505 425.812 120.438 425.503 120.438C425.203 120.438 424.952 120.509 424.752 120.651C424.56 120.785 424.41 120.964 424.301 121.19C424.193 121.407 424.122 121.64 424.088 121.891ZM431.703 125.973C431.127 125.973 430.651 125.922 430.276 125.822C429.908 125.731 429.654 125.651 429.512 125.584L429.812 124.245C430.071 124.345 430.359 124.437 430.676 124.52C431.002 124.595 431.348 124.633 431.715 124.633C432.083 124.633 432.354 124.591 432.529 124.508C432.713 124.424 432.805 124.266 432.805 124.032C432.805 123.898 432.759 123.786 432.667 123.694C432.583 123.602 432.45 123.51 432.266 123.418C432.091 123.327 431.861 123.226 431.578 123.118C431.21 122.976 430.881 122.826 430.589 122.667C430.305 122.5 430.079 122.287 429.912 122.029C429.754 121.77 429.675 121.436 429.675 121.027C429.675 120.626 429.775 120.284 429.975 120C430.184 119.708 430.472 119.483 430.839 119.324C431.215 119.157 431.661 119.074 432.179 119.074C432.588 119.074 432.967 119.111 433.318 119.186C433.669 119.262 433.94 119.337 434.132 119.412L433.831 120.701C433.648 120.635 433.427 120.568 433.168 120.501C432.917 120.434 432.621 120.401 432.279 120.401C431.97 120.401 431.728 120.451 431.553 120.551C431.377 120.643 431.29 120.793 431.29 121.002C431.29 121.127 431.323 121.236 431.39 121.327C431.457 121.419 431.569 121.507 431.728 121.59C431.886 121.674 432.108 121.77 432.391 121.878C432.901 122.062 433.301 122.25 433.593 122.442C433.886 122.634 434.098 122.855 434.232 123.105C434.366 123.356 434.432 123.669 434.432 124.044C434.432 124.47 434.324 124.825 434.107 125.109C433.898 125.392 433.589 125.609 433.18 125.76C432.771 125.902 432.279 125.973 431.703 125.973ZM437.609 125.973C437.033 125.973 436.557 125.922 436.181 125.822C435.814 125.731 435.559 125.651 435.417 125.584L435.718 124.245C435.977 124.345 436.265 124.437 436.582 124.52C436.907 124.595 437.254 124.633 437.621 124.633C437.988 124.633 438.26 124.591 438.435 124.508C438.619 124.424 438.71 124.266 438.71 124.032C438.71 123.898 438.664 123.786 438.573 123.694C438.489 123.602 438.356 123.51 438.172 123.418C437.997 123.327 437.767 123.226 437.483 123.118C437.116 122.976 436.786 122.826 436.494 122.667C436.21 122.5 435.985 122.287 435.818 122.029C435.66 121.77 435.58 121.436 435.58 121.027C435.58 120.626 435.68 120.284 435.881 120C436.089 119.708 436.377 119.483 436.745 119.324C437.12 119.157 437.567 119.074 438.084 119.074C438.493 119.074 438.873 119.111 439.224 119.186C439.574 119.262 439.846 119.337 440.038 119.412L439.737 120.701C439.553 120.635 439.332 120.568 439.073 120.501C438.823 120.434 438.527 120.401 438.185 120.401C437.876 120.401 437.634 120.451 437.458 120.551C437.283 120.643 437.195 120.793 437.195 121.002C437.195 121.127 437.229 121.236 437.296 121.327C437.362 121.419 437.475 121.507 437.634 121.59C437.792 121.674 438.013 121.77 438.297 121.878C438.806 122.062 439.207 122.25 439.499 122.442C439.791 122.634 440.004 122.855 440.138 123.105C440.271 123.356 440.338 123.669 440.338 124.044C440.338 124.47 440.23 124.825 440.013 125.109C439.804 125.392 439.495 125.609 439.086 125.76C438.677 125.902 438.185 125.973 437.609 125.973ZM447.011 125.948C446.469 125.948 445.993 125.881 445.584 125.747C445.175 125.605 444.854 125.38 444.62 125.071C444.395 124.754 444.282 124.332 444.282 123.807C444.282 123.306 444.407 122.905 444.657 122.605C444.916 122.304 445.258 122.091 445.684 121.966C446.11 121.832 446.565 121.766 447.049 121.766C447.291 121.766 447.512 121.778 447.712 121.803C447.921 121.828 448.076 121.857 448.176 121.891V121.666C448.176 121.432 448.134 121.223 448.051 121.039C447.975 120.856 447.838 120.714 447.637 120.614C447.445 120.505 447.178 120.451 446.836 120.451C446.477 120.451 446.152 120.476 445.859 120.526C445.567 120.576 445.325 120.639 445.133 120.714L444.92 119.387C445.121 119.32 445.409 119.253 445.784 119.186C446.168 119.111 446.577 119.074 447.011 119.074C447.704 119.074 448.251 119.182 448.651 119.399C449.052 119.616 449.336 119.921 449.503 120.313C449.67 120.706 449.753 121.169 449.753 121.703V125.635C449.511 125.685 449.152 125.747 448.677 125.822C448.209 125.906 447.654 125.948 447.011 125.948ZM447.137 124.67C447.354 124.67 447.554 124.666 447.737 124.658C447.921 124.641 448.067 124.62 448.176 124.595V122.993C448.101 122.968 447.98 122.947 447.813 122.93C447.654 122.905 447.487 122.893 447.312 122.893C447.07 122.893 446.84 122.918 446.623 122.968C446.414 123.009 446.243 123.093 446.11 123.218C445.976 123.343 445.909 123.527 445.909 123.769C445.909 124.103 446.018 124.337 446.235 124.47C446.46 124.604 446.761 124.67 447.137 124.67ZM454.273 125.948C453.555 125.948 452.987 125.818 452.57 125.559C452.161 125.301 451.873 124.946 451.706 124.495C451.539 124.036 451.456 123.506 451.456 122.905V119.249H453.096V122.68C453.096 123.122 453.133 123.481 453.209 123.756C453.292 124.032 453.43 124.232 453.622 124.357C453.814 124.483 454.068 124.545 454.386 124.545C454.578 124.545 454.761 124.537 454.936 124.52C455.12 124.504 455.266 124.487 455.375 124.47V119.249H457.002V125.584C456.702 125.668 456.31 125.747 455.825 125.822C455.35 125.906 454.832 125.948 454.273 125.948ZM461.284 125.96C460.641 125.96 460.136 125.847 459.769 125.622C459.41 125.388 459.155 125.067 459.005 124.658C458.863 124.241 458.792 123.748 458.792 123.18V117.546L460.42 117.283V119.249H462.736V120.614H460.42V123.18C460.42 123.489 460.453 123.748 460.52 123.957C460.595 124.157 460.712 124.307 460.871 124.408C461.038 124.508 461.259 124.558 461.534 124.558C461.76 124.558 461.977 124.537 462.185 124.495C462.402 124.445 462.594 124.387 462.761 124.32L462.999 125.609C462.799 125.693 462.561 125.772 462.286 125.847C462.01 125.922 461.676 125.96 461.284 125.96ZM466.906 125.973C466.28 125.973 465.725 125.831 465.241 125.547C464.765 125.255 464.393 124.85 464.126 124.332C463.859 123.815 463.726 123.21 463.726 122.517C463.726 121.824 463.863 121.223 464.139 120.714C464.414 120.205 464.79 119.804 465.266 119.512C465.75 119.22 466.296 119.074 466.906 119.074C467.523 119.074 468.07 119.22 468.546 119.512C469.03 119.796 469.406 120.196 469.673 120.714C469.94 121.223 470.074 121.824 470.074 122.517C470.074 123.21 469.94 123.815 469.673 124.332C469.414 124.85 469.047 125.255 468.571 125.547C468.104 125.831 467.549 125.973 466.906 125.973ZM466.906 124.57C467.223 124.57 467.49 124.487 467.707 124.32C467.932 124.153 468.104 123.915 468.22 123.606C468.346 123.297 468.408 122.934 468.408 122.517C468.408 122.1 468.346 121.741 468.22 121.44C468.104 121.14 467.932 120.906 467.707 120.739C467.49 120.572 467.223 120.489 466.906 120.489C466.589 120.489 466.317 120.572 466.092 120.739C465.867 120.906 465.695 121.14 465.579 121.44C465.462 121.741 465.403 122.1 465.403 122.517C465.403 122.934 465.462 123.297 465.579 123.606C465.695 123.907 465.867 124.145 466.092 124.32C466.317 124.487 466.589 124.57 466.906 124.57ZM471.596 125.81V119.474C471.904 119.391 472.293 119.307 472.76 119.224C473.236 119.141 473.728 119.099 474.237 119.099C474.696 119.099 475.072 119.161 475.364 119.287C475.665 119.403 475.911 119.554 476.103 119.737C476.262 119.62 476.445 119.516 476.654 119.424C476.863 119.333 477.088 119.257 477.33 119.199C477.572 119.132 477.81 119.099 478.044 119.099C478.736 119.099 479.266 119.228 479.634 119.487C480.009 119.737 480.264 120.088 480.397 120.539C480.539 120.989 480.61 121.515 480.61 122.116V125.81H478.983V122.342C478.983 121.908 478.945 121.557 478.87 121.29C478.803 121.014 478.686 120.814 478.519 120.689C478.352 120.564 478.123 120.501 477.831 120.501C477.706 120.501 477.572 120.518 477.43 120.551C477.297 120.585 477.171 120.63 477.055 120.689C476.938 120.739 476.837 120.789 476.754 120.839C476.821 121.039 476.863 121.252 476.879 121.478C476.904 121.703 476.917 121.941 476.917 122.191V125.81H475.289V122.342C475.289 121.908 475.252 121.557 475.176 121.29C475.11 121.014 474.993 120.814 474.826 120.689C474.659 120.564 474.425 120.501 474.125 120.501C474.008 120.501 473.891 120.505 473.774 120.514C473.666 120.522 473.565 120.534 473.474 120.551C473.382 120.56 473.298 120.572 473.223 120.589V125.81H471.596ZM484.671 125.948C484.128 125.948 483.652 125.881 483.243 125.747C482.834 125.605 482.513 125.38 482.279 125.071C482.054 124.754 481.941 124.332 481.941 123.807C481.941 123.306 482.067 122.905 482.317 122.605C482.576 122.304 482.918 122.091 483.344 121.966C483.769 121.832 484.224 121.766 484.708 121.766C484.95 121.766 485.172 121.778 485.372 121.803C485.581 121.828 485.735 121.857 485.835 121.891V121.666C485.835 121.432 485.794 121.223 485.71 121.039C485.635 120.856 485.497 120.714 485.297 120.614C485.105 120.505 484.838 120.451 484.496 120.451C484.137 120.451 483.811 120.476 483.519 120.526C483.227 120.576 482.985 120.639 482.793 120.714L482.58 119.387C482.78 119.32 483.068 119.253 483.444 119.186C483.828 119.111 484.237 119.074 484.671 119.074C485.364 119.074 485.91 119.182 486.311 119.399C486.712 119.616 486.995 119.921 487.162 120.313C487.329 120.706 487.413 121.169 487.413 121.703V125.635C487.171 125.685 486.812 125.747 486.336 125.822C485.869 125.906 485.314 125.948 484.671 125.948ZM484.796 124.67C485.013 124.67 485.213 124.666 485.397 124.658C485.581 124.641 485.727 124.62 485.835 124.595V122.993C485.76 122.968 485.639 122.947 485.472 122.93C485.314 122.905 485.147 122.893 484.971 122.893C484.729 122.893 484.5 122.918 484.283 122.968C484.074 123.009 483.903 123.093 483.769 123.218C483.636 123.343 483.569 123.527 483.569 123.769C483.569 124.103 483.678 124.337 483.895 124.47C484.12 124.604 484.42 124.67 484.796 124.67ZM491.619 125.96C490.977 125.96 490.472 125.847 490.104 125.622C489.745 125.388 489.491 125.067 489.341 124.658C489.199 124.241 489.128 123.748 489.128 123.18V117.546L490.755 117.283V119.249H493.072V120.614H490.755V123.18C490.755 123.489 490.789 123.748 490.856 123.957C490.931 124.157 491.048 124.307 491.206 124.408C491.373 124.508 491.594 124.558 491.87 124.558C492.095 124.558 492.312 124.537 492.521 124.495C492.738 124.445 492.93 124.387 493.097 124.32L493.335 125.609C493.134 125.693 492.896 125.772 492.621 125.847C492.346 125.922 492.012 125.96 491.619 125.96ZM494.583 125.81V119.249H496.21V125.81H494.583ZM495.396 118.072C495.129 118.072 494.896 117.984 494.695 117.809C494.495 117.626 494.395 117.379 494.395 117.07C494.395 116.762 494.495 116.52 494.695 116.344C494.896 116.169 495.129 116.081 495.396 116.081C495.672 116.081 495.906 116.169 496.098 116.344C496.298 116.52 496.398 116.762 496.398 117.07C496.398 117.379 496.298 117.626 496.098 117.809C495.906 117.984 495.672 118.072 495.396 118.072ZM500.909 125.973C500.283 125.973 499.728 125.831 499.244 125.547C498.768 125.255 498.397 124.85 498.13 124.332C497.863 123.815 497.729 123.21 497.729 122.517C497.729 121.824 497.867 121.223 498.142 120.714C498.418 120.205 498.793 119.804 499.269 119.512C499.753 119.22 500.3 119.074 500.909 119.074C501.527 119.074 502.074 119.22 502.55 119.512C503.034 119.796 503.409 120.196 503.676 120.714C503.944 121.223 504.077 121.824 504.077 122.517C504.077 123.21 503.944 123.815 503.676 124.332C503.418 124.85 503.05 125.255 502.575 125.547C502.107 125.831 501.552 125.973 500.909 125.973ZM500.909 124.57C501.227 124.57 501.494 124.487 501.711 124.32C501.936 124.153 502.107 123.915 502.224 123.606C502.349 123.297 502.412 122.934 502.412 122.517C502.412 122.1 502.349 121.741 502.224 121.44C502.107 121.14 501.936 120.906 501.711 120.739C501.494 120.572 501.227 120.489 500.909 120.489C500.592 120.489 500.321 120.572 500.096 120.739C499.87 120.906 499.699 121.14 499.582 121.44C499.465 121.741 499.407 122.1 499.407 122.517C499.407 122.934 499.465 123.297 499.582 123.606C499.699 123.907 499.87 124.145 500.096 124.32C500.321 124.487 500.592 124.57 500.909 124.57ZM505.599 125.81V119.474C505.9 119.391 506.288 119.307 506.764 119.224C507.248 119.141 507.769 119.099 508.329 119.099C509.063 119.099 509.631 119.228 510.031 119.487C510.44 119.737 510.724 120.088 510.883 120.539C511.05 120.989 511.133 121.515 511.133 122.116V125.81H509.506V122.342C509.506 121.899 509.464 121.544 509.38 121.277C509.305 121.002 509.176 120.806 508.992 120.689C508.809 120.564 508.55 120.501 508.216 120.501C508.024 120.501 507.836 120.514 507.653 120.539C507.477 120.555 507.335 120.572 507.227 120.589V125.81H505.599Z" fill="#05803E"/>
</g>
</g>
<defs>
<filter id="filter0_d_1567_2111" x="46.3999" y="17.3999" width="455.8" height="343.62" filterUnits="userSpaceOnUse" color-interpolation-filters="sRGB">
<feFlood flood-opacity="0" result="BackgroundImageFix"/>
<feColorMatrix in="SourceAlpha" type="matrix" values="0 0 0 0 0 0 0 0 0 0 0 0 0 0 0 0 0 0 127 0" result="hardAlpha"/>
<feMorphology radius="1" operator="dilate" in="SourceAlpha" result="effect1_dropShadow_1567_2111"/>
<feOffset dy="4"/>
<feGaussianBlur stdDeviation="4"/>
<feComposite in2="hardAlpha" operator="out"/>
<feColorMatrix type="matrix" values="0 0 0 0 0 0 0 0 0 0 0 0 0 0 0 0 0 0 0.14 0"/>
<feBlend mode="normal" in2="BackgroundImageFix" result="effect1_dropShadow_1567_2111"/>
<feBlend mode="normal" in="SourceGraphic" in2="effect1_dropShadow_1567_2111" result="shape"/>
</filter>
<filter id="filter1_d_1567_2111" x="357.83" y="158.18" width="175.12" height="159.33" filterUnits="userSpaceOnUse" color-interpolation-filters="sRGB">
<feFlood flood-opacity="0" result="BackgroundImageFix"/>
<feColorMatrix in="SourceAlpha" type="matrix" values="0 0 0 0 0 0 0 0 0 0 0 0 0 0 0 0 0 0 127 0" result="hardAlpha"/>
<feMorphology radius="1" operator="dilate" in="SourceAlpha" result="effect1_dropShadow_1567_2111"/>
<feOffset dy="8"/>
<feGaussianBlur stdDeviation="8"/>
<feComposite in2="hardAlpha" operator="out"/>
<feColorMatrix type="matrix" values="0 0 0 0 0 0 0 0 0 0 0 0 0 0 0 0 0 0 0.14 0"/>
<feBlend mode="normal" in2="BackgroundImageFix" result="effect1_dropShadow_1567_2111"/>
<feBlend mode="normal" in="SourceGraphic" in2="effect1_dropShadow_1567_2111" result="shape"/>
</filter>
<filter id="filter2_d_1567_2111" x="-5" y="43" width="281.19" height="132.82" filterUnits="userSpaceOnUse" color-interpolation-filters="sRGB">
<feFlood flood-opacity="0" result="BackgroundImageFix"/>
<feColorMatrix in="SourceAlpha" type="matrix" values="0 0 0 0 0 0 0 0 0 0 0 0 0 0 0 0 0 0 127 0" result="hardAlpha"/>
<feMorphology radius="1" operator="dilate" in="SourceAlpha" result="effect1_dropShadow_1567_2111"/>
<feOffset dy="8"/>
<feGaussianBlur stdDeviation="8"/>
<feComposite in2="hardAlpha" operator="out"/>
<feColorMatrix type="matrix" values="0 0 0 0 0 0 0 0 0 0 0 0 0 0 0 0 0 0 0.14 0"/>
<feBlend mode="normal" in2="BackgroundImageFix" result="effect1_dropShadow_1567_2111"/>
<feBlend mode="normal" in="SourceGraphic" in2="effect1_dropShadow_1567_2111" result="shape"/>
</filter>
<filter id="filter3_d_1567_2111" x="180.064" y="-4.49572" width="210.069" height="80.4921" filterUnits="userSpaceOnUse" color-interpolation-filters="sRGB">
<feFlood flood-opacity="0" result="BackgroundImageFix"/>
<feColorMatrix in="SourceAlpha" type="matrix" values="0 0 0 0 0 0 0 0 0 0 0 0 0 0 0 0 0 0 127 0" result="hardAlpha"/>
<feMorphology radius="1.05508" operator="dilate" in="SourceAlpha" result="effect1_dropShadow_1567_2111"/>
<feOffset dy="8.44064"/>
<feGaussianBlur stdDeviation="8.44064"/>
<feComposite in2="hardAlpha" operator="out"/>
<feColorMatrix type="matrix" values="0 0 0 0 0 0 0 0 0 0 0 0 0 0 0 0 0 0 0.14 0"/>
<feBlend mode="normal" in2="BackgroundImageFix" result="effect1_dropShadow_1567_2111"/>
<feBlend mode="normal" in="SourceGraphic" in2="effect1_dropShadow_1567_2111" result="shape"/>
</filter>
<filter id="filter4_d_1567_2111" x="288.064" y="89.5043" width="251.069" height="80.4921" filterUnits="userSpaceOnUse" color-interpolation-filters="sRGB">
<feFlood flood-opacity="0" result="BackgroundImageFix"/>
<feColorMatrix in="SourceAlpha" type="matrix" values="0 0 0 0 0 0 0 0 0 0 0 0 0 0 0 0 0 0 127 0" result="hardAlpha"/>
<feMorphology radius="1.05508" operator="dilate" in="SourceAlpha" result="effect1_dropShadow_1567_2111"/>
<feOffset dy="8.44064"/>
<feGaussianBlur stdDeviation="8.44064"/>
<feComposite in2="hardAlpha" operator="out"/>
<feColorMatrix type="matrix" values="0 0 0 0 0 0 0 0 0 0 0 0 0 0 0 0 0 0 0.14 0"/>
<feBlend mode="normal" in2="BackgroundImageFix" result="effect1_dropShadow_1567_2111"/>
<feBlend mode="normal" in="SourceGraphic" in2="effect1_dropShadow_1567_2111" result="shape"/>
</filter>
<clipPath id="clip0_1567_2111">
<rect width="534" height="380" fill="white"/>
</clipPath>
</defs>
</svg>
